<?xml version="1.0" standalone="no"?>
<!DOCTYPE svg PUBLIC "-//W3C//DTD SVG 1.1//EN" "http://www.w3.org/Graphics/SVG/1.1/DTD/svg11.dtd" >
<svg xmlns="http://www.w3.org/2000/svg" xmlns:xlink="http://www.w3.org/1999/xlink" version="1.1">
<metadata>
Created by FontForge 20170910 at Sat Oct 31 19:32:06 2015
 By jimmywarting
Copyright (c) 2009 by Arax Media Group LLC. All rights reserved.
</metadata>
<defs>
<font id="AMGAnahitSemiSerif" horiz-adv-x="550" >
  <font-face 
    font-family="AMG Anahit Semi Serif"
    font-weight="400"
    font-stretch="normal"
    units-per-em="1000"
    panose-1="2 0 5 3 0 0 0 2 0 4"
    ascent="800"
    descent="-200"
    x-height="488"
    cap-height="695"
    bbox="-33 -230 1031 937"
    underline-thickness="50"
    underline-position="-100"
    unicode-range="U+0020-0491"
  />
<missing-glyph horiz-adv-x="500" 
d="M442 8v496h-384v-496h384zM50 512h400v-512h-400v512z" />
    <glyph glyph-name="afii10017.var.accented" unicode="&#x410;`" horiz-adv-x="714" 
d="M610 0q-31 0 -45 10.5t-24 37.5l-48 134h-295l-66 -182h-92l249 649h-75v46h119q23 0 39.5 -2.5t29 -10t21.5 -21.5t17 -36l212 -566l22 -59h-64zM350 589h-4l-128 -348h256zM284 769l73 168h116l-120 -168h-69z" />
    <glyph glyph-name="afii10022.var.accented" unicode="&#x415;`" horiz-adv-x="621" 
d="M218 59h271v100h80v-114q0 -45 -46 -45h-413v649h-70v46h459q46 0 46 -45v-110h-80v96h-247v-243h252v-59h-252v-275zM247 769l73 168h116l-120 -168h-69z" />
    <glyph glyph-name="afii10026.var.accented" unicode="&#x418;`" horiz-adv-x="766" 
d="M656 0h-36q-32 0 -52 16.5t-20 58.5v482l-335 -557h-103v649h-70v46h106q32 0 52 -16.5t20 -58.5v-482l335 557h103v-695zM312 769l73 168h116l-120 -168h-69z" />
    <glyph glyph-name="afii10032.var.accented" unicode="&#x41e;`" horiz-adv-x="736" 
d="M676 348q0 -26 -4 -63t-16 -77.5t-33.5 -80.5t-55.5 -71.5t-83.5 -51t-116.5 -19.5t-116 19.5t-83.5 51t-55.5 71.5t-32.5 80.5t-15.5 77.5t-4 63t4 63t15.5 77.5t32.5 80t55.5 71t83 51t116.5 19.5q67 0 116.5 -19.5t83.5 -51t55.5 -71t33.5 -80t16 -77.5t4 -63z
M563 348q0 20 -2.5 51t-9.5 65.5t-20.5 68.5t-35.5 61.5t-53.5 44.5t-74.5 17t-74 -17t-52.5 -44.5t-34.5 -61.5t-20.5 -68.5t-10 -65.5t-2.5 -51t2.5 -50.5t10 -65t20.5 -69t34.5 -62t52.5 -45t74 -17.5t74.5 17.5t53.5 45t35.5 62t20.5 69t9.5 65t2.5 50.5zM301 769
l73 168h116l-120 -168h-69z" />
    <glyph glyph-name="afii10037.var.accented" unicode="&#x423;`" horiz-adv-x="653" 
d="M92 695q35 0 57 -14.5t36 -43.5l168 -359h6l170 417h89l-241 -553q-32 -75 -70 -108.5t-94 -33.5h-67v84h95q18 9 36.5 32t35.5 68l8 21h-39l-217 444h-70v46h97zM272 769l73 168h116l-120 -168h-69z" />
    <glyph glyph-name="afii10045.var.accented" unicode="&#x42b;`" horiz-adv-x="915" 
d="M218 393h117q20 0 46.5 -1t55 -7t56.5 -17.5t50 -33t35.5 -53.5t13.5 -79q0 -46 -14.5 -79t-38 -55.5t-53 -35.5t-58 -20.5t-54 -9.5t-41.5 -2h-223v649h-70v46h106q32 0 52 -16.5t20 -58.5v-227zM769 0q-32 0 -52 16.5t-20 58.5v620h108v-695h-36zM216 334v-276h119
q40 0 68 12.5t44.5 33t24 46t7.5 52.5q0 24 -7.5 47.5t-24 42.5t-44.5 30.5t-68 11.5h-119zM381 769l73 168h116l-120 -168h-69z" />
    <glyph glyph-name="afii10047.var.accented" unicode="&#x42d;`" horiz-adv-x="640" 
d="M135 72q29 -15 58.5 -21t61.5 -6q45 0 83.5 19.5t67 56.5t45 90.5t16.5 121.5h-293v59h292q-8 133 -60 195.5t-145 62.5q-32 0 -57 -3.5t-55 -15.5v-110h-80v112q0 17 6.5 28.5t23.5 19.5q44 17 84 23t94 6q81 0 138 -25.5t94 -72t54 -112t17 -146.5q0 -92 -24 -161.5
t-66.5 -115.5t-101 -69t-127.5 -23q-42 0 -88.5 8t-87.5 28q-13 7 -21.5 18.5t-8.5 34.5v114h80v-116zM237 769l73 168h116l-120 -168h-69z" />
    <glyph glyph-name="afii10048.var.accented" unicode="&#x42e;`" horiz-adv-x="1019" 
d="M959 348q0 -26 -4 -63t-16 -77.5t-33.5 -80.5t-55.5 -71.5t-83.5 -51t-116.5 -19.5q-64 0 -112 18t-81.5 47.5t-55.5 67t-34.5 76t-17.5 75.5t-6 65h-125v-334h-108v649h-70v46h106q32 0 52 -16.5t20 -58.5v-227h127q3 30 10 65t21.5 70t37 68t55 58.5t77.5 40.5t104 15
q67 0 116.5 -19.5t83.5 -51t55.5 -71t33.5 -80t16 -77.5t4 -63zM846 348q0 20 -2.5 51t-9.5 65.5t-20.5 68.5t-35.5 61.5t-53.5 44.5t-74.5 17t-74 -17t-52.5 -44.5t-34.5 -61.5t-20.5 -68.5t-10 -65.5t-2.5 -51t2.5 -50.5t10 -65t20.5 -69t34.5 -62t52.5 -45t74 -17.5
t74.5 17.5t53.5 45t35.5 62t20.5 69t9.5 65t2.5 50.5zM329 769l73 168h116l-120 -168h-69z" />
    <glyph glyph-name="afii10049.var.accented" unicode="&#x42f;`" horiz-adv-x="698" 
d="M588 0h-36q-32 0 -52 16.5t-20 58.5v222h-77l-188 -247q-22 -28 -45 -39t-65 -11h-67l116 148q26 34 47 58t39 41.5t35 29.5t37 22v6q-61 3 -101 20.5t-64 43.5t-33.5 58.5t-9.5 67.5q0 54 20.5 92t55 62t80.5 35t96 11h163q32 0 50.5 -15t18.5 -57v-623zM481 637h-98
q-22 0 -50.5 -5t-54.5 -20t-44 -43t-18 -74q0 -41 16.5 -67.5t40.5 -43t52 -23t52 -6.5h104v282zM346 769l73 168h116l-120 -168h-69z" />
    <glyph glyph-name="afii10065.var.accented" unicode="&#x430;`" horiz-adv-x="570" 
d="M90 345v79q0 33 33 48q48 18 89 23t73 5q57 0 94.5 -11t60 -32t31.5 -51.5t9 -69.5v-336h-40q-60 0 -63 59h-2q-46 -42 -88.5 -56.5t-77.5 -14.5q-39 0 -68.5 10.5t-49 29t-29 43.5t-9.5 54q0 32 11.5 61.5t40 52.5t76 37t119.5 14h76v39q0 65 -28.5 90t-80.5 25
q-31 0 -56 -5t-54 -18v-76h-67zM323 240q-50 0 -82 -8.5t-50.5 -23.5t-26 -34.5t-7.5 -41.5q0 -39 24 -59t62 -20q21 0 41.5 7t37.5 17.5t31.5 24t23.5 25.5v113h-54zM236 565l72 164h112l-118 -164h-66z" />
    <glyph glyph-name="afii10070.var.accented" unicode="&#x435;`" horiz-adv-x="528" 
d="M311 45q20 0 36.5 2t32 7t32 13.5t37.5 20.5l22 -50q-33 -20 -75.5 -35t-102.5 -15q-63 0 -108.5 18t-74 51.5t-42 81t-13.5 105.5q0 55 14.5 102t43 81.5t71 53.5t99.5 19q95 0 149 -58.5t54 -179.5v-31h-328q0 -95 37 -140.5t116 -45.5zM280 450q-47 0 -81 -44.5
t-39 -124.5h232q-2 45 -12 77.5t-25 52.5t-34.5 29.5t-40.5 9.5zM215 565l72 164h112l-118 -164h-66z" />
    <glyph glyph-name="afii10074.var.accented" unicode="&#x438;`" horiz-adv-x="616" 
d="M95 446h-60v42h100q32 0 47.5 -18t15.5 -47v-302h4l224 367h98v-488h-40q-32 0 -47.5 18t-15.5 47v302h-4l-224 -367h-98v446zM249 565l72 164h112l-118 -164h-66z" />
    <glyph glyph-name="afii10080.var.accented" unicode="&#x43e;`" horiz-adv-x="570" 
d="M285 -12q-52 0 -94.5 16.5t-72.5 49t-46.5 80t-16.5 110.5q0 64 17 112t48 80t73 48t92 16t92 -16t73 -48t48 -80t17 -112q0 -63 -16.5 -110.5t-46.5 -80t-72.5 -49t-94.5 -16.5zM285 38q27 0 50 11t39.5 36t26 64t9.5 95q0 55 -9.5 94t-26.5 64t-40 36.5t-49 11.5
t-48.5 -11.5t-39.5 -36.5t-27 -64t-10 -94q0 -56 9.5 -95t26 -64t39.5 -36t50 -11zM221 565l72 164h112l-118 -164h-66z" />
    <glyph glyph-name="afii10085.var.accented" unicode="&#x443;`" horiz-adv-x="553" 
d="M518 488l-207 -560q-13 -36 -26.5 -63.5t-30 -46.5t-38 -28.5t-51.5 -9.5h-58v73h86q12 7 23 22.5t26 54.5l27 70h-31l-178 446h-60v42h97q26 0 47 -14.5t37 -58.5l117 -322h5l135 395h80zM223 565l72 164h112l-118 -164h-66z" />
    <glyph glyph-name="afii10093.var.accented" unicode="&#x44b;`" horiz-adv-x="733" 
d="M158 0q-32 0 -47.5 17t-15.5 46v383h-60v42h100q32 0 47.5 -18t15.5 -47v-133h98q95 0 135.5 -37.5t40.5 -105.5q0 -36 -14 -63.5t-37.5 -46t-55 -28t-67.5 -9.5h-140zM538 488h103v-488h-40q-32 0 -47.5 18t-15.5 47v423zM270 54q45 0 71.5 20.5t26.5 73.5q0 24 -8 41.5
t-21.5 28t-31.5 15.5t-37 5h-73v-184h73zM298 565l72 164h112l-118 -164h-66z" />
    <glyph glyph-name="afii10095.var.accented" unicode="&#x44d;`" horiz-adv-x="523" 
d="M117 69q25 -13 47.5 -18.5t54.5 -5.5q28 0 53 10.5t44.5 32t31.5 55.5t14 81h-197v55h197q-4 45 -16.5 76t-31.5 50.5t-43 28.5t-51 9q-29 0 -48.5 -3.5t-45.5 -15.5v-76h-67v77q0 20 7 31t25 19q33 12 67.5 18.5t69.5 6.5q49 0 93 -13t76.5 -42t51.5 -76t19 -116
q0 -68 -17.5 -118t-50 -82.5t-78 -48.5t-102.5 -16q-13 0 -29.5 2t-34.5 5t-35.5 8t-30.5 11q-14 6 -27 17t-13 39v78h67v-79zM186 565l72 164h112l-118 -164h-66z" />
    <glyph glyph-name="afii10096.var.accented" unicode="&#x44e;`" horiz-adv-x="799" 
d="M514 -12q-99 0 -161.5 60.5t-68.5 175.5h-86v-224h-103v446h-60v42h100q32 0 47.5 -18t15.5 -47v-144h87q5 55 24 96.5t49 69t69.5 41.5t86.5 14q50 0 92 -16t73 -48t48 -80t17 -112q0 -63 -16.5 -110.5t-46.5 -80t-72.5 -49t-94.5 -16.5zM514 38q55 0 90 48t35 158
q0 54 -9.5 93t-26.5 64t-40 37t-49 12t-48.5 -12t-39.5 -37t-27 -64t-10 -93q0 -110 35 -158t90 -48zM275 565l72 164h112l-118 -164h-66z" />
    <glyph glyph-name="afii10097.var.accented" unicode="&#x44f;`" horiz-adv-x="558" 
d="M466 0h-40q-32 0 -47.5 18t-15.5 47v138h-53l-114 -158q-16 -22 -36 -33.5t-58 -11.5h-69l98 123q16 20 28.5 34t23.5 23t21 15t21 11v6q-45 4 -73.5 18t-45 33t-23 41.5t-6.5 44.5q0 67 47.5 103t144.5 36h134q32 0 47.5 -18t15.5 -47v-423zM289 434q-48 0 -78 -20
t-30 -70q0 -20 9 -36.5t25 -29t38 -19.5t47 -7h64v182h-75zM239 565l72 164h112l-118 -164h-66z" />
    <glyph glyph-name="fi" unicode="fi" horiz-adv-x="575" 
d="M443 0q-32 0 -47.5 18t-15.5 47v371h-182v-436h-103v436h-60v52h60v53q0 53 16.5 91.5t46 63.5t70 37t88.5 12q38 0 64 -4.5t43 -9.5q18 -6 26.5 -15t8.5 -32v-72h-67v73q-14 4 -29 6.5t-46 2.5q-24 0 -45.5 -7t-37.5 -22.5t-25.5 -39.5t-9.5 -57v-80h222q32 0 47.5 -18
t15.5 -47v-423h-40z" />
    <glyph glyph-name="fl" unicode="fl" horiz-adv-x="575" 
d="M443 0q-32 0 -47.5 18t-15.5 47v371h-182v-436h-103v436h-60v52h60v53q0 53 16.5 91.5t46 63.5t70 37t88.5 12q38 0 64 -4.5t43 -9.5q26 -8 43 -23t17 -47v-661h-40zM198 488h182v200q-11 2 -25 4t-39 2q-24 0 -45.5 -7t-37.5 -22.5t-25.5 -39.5t-9.5 -57v-80z" />
    <glyph glyph-name=".notdef" horiz-adv-x="500" 
d="M442 8v496h-384v-496h384zM50 512h400v-512h-400v512z" />
    <glyph glyph-name=".null" horiz-adv-x="0" 
 />
    <glyph glyph-name="nonmarkingreturn" horiz-adv-x="502" 
 />
    <glyph glyph-name="space" unicode=" " horiz-adv-x="502" 
 />
    <glyph glyph-name="exclam" unicode="!" horiz-adv-x="320" 
d="M107 190v505h106v-505h-106zM95 50q0 27 19 46t46 19t46 -19t19 -46t-19 -46t-46 -19t-46 19t-19 46z" />
    <glyph glyph-name="quotedbl" unicode="&#x22;" horiz-adv-x="432" 
d="M186 716l-31 -218h-54l-31 218h116zM362 716l-31 -218h-54l-31 218h116z" />
    <glyph glyph-name="numbersign" unicode="#" 
d="M276 84l24 130h-101l-26 -130h-72l23 130h-111l13 64h113l26 138h-113l13 64h113l25 129h72l-25 -129h101l25 129h72l-23 -129h112l-12 -64h-113l-26 -138h112l-13 -64h-114l-23 -130h-72zM312 278l27 138h-102l-27 -138h102z" />
    <glyph glyph-name="dollar" unicode="$" 
d="M237 -14q-51 2 -95.5 13t-79.5 28q-12 6 -20 18t-8 35v114h73v-116q26 -14 57 -23t73 -10v276q-45 18 -82 35t-63.5 40t-41 54t-14.5 78q0 76 52.5 125.5t148.5 55.5v78h62v-78q65 -6 130 -31q17 -8 22.5 -19.5t5.5 -28.5v-116h-73v112q-27 11 -44.5 16t-40.5 7v-257
q56 -22 97 -42t67.5 -43.5t39.5 -53.5t13 -72q0 -79 -56 -131.5t-161 -62.5v-82h-62v81zM412 170q0 24 -7 42.5t-21 32.5t-35 26.5t-50 24.5v-247q59 10 86 43t27 78zM143 534q0 -46 22.5 -70.5t71.5 -46.5v230q-25 -4 -42.5 -15t-29 -26.5t-17 -34t-5.5 -37.5z" />
    <glyph glyph-name="percent" unicode="%" horiz-adv-x="900" 
d="M60 507q0 41 8 78t25 64.5t44 44t66 16.5q38 0 65 -16.5t44 -44t25 -64.5t8 -78q0 -43 -8 -79.5t-25 -63t-44 -41.5t-65 -15q-39 0 -66 15t-44 41.5t-25 63t-8 79.5zM264 508q0 27 -2 56.5t-8.5 54t-18.5 40t-32 15.5t-32 -15.5t-18.5 -40t-8.5 -54t-2 -56.5
q0 -31 2 -60.5t8.5 -53t18.5 -37.5t32 -14t32 14t18.5 37.5t8.5 53t2 60.5zM555 187q0 41 8 78t25 64.5t44 44t66 16.5q38 0 65 -16.5t44 -44t25 -64.5t8 -78q0 -43 -8 -79.5t-25 -63t-44 -41.5t-65 -15q-39 0 -66 15t-44 41.5t-25 63t-8 79.5zM759 188q0 27 -2 56.5
t-8.5 54t-18.5 40t-32 15.5t-32 -15.5t-18.5 -40t-8.5 -54t-2 -56.5q0 -31 2 -60.5t8.5 -53t18.5 -37.5t32 -14t32 14t18.5 37.5t8.5 53t2 60.5zM699 710l-439 -725h-65l439 725h65z" />
    <glyph glyph-name="ampersand" unicode="&#x26;" horiz-adv-x="628" 
d="M583 235q-16 -40 -31 -64.5t-28 -41.5l104 -129h-58q-35 0 -52.5 7.5t-32.5 24.5l-23 27q-45 -39 -90.5 -56.5t-105.5 -17.5q-114 0 -170 51.5t-56 134.5q0 35 8 65.5t27.5 58.5t52 53.5t80.5 50.5q-30 39 -49.5 80t-19.5 83q0 64 43 106t130 42q37 0 66 -11t48.5 -29
t29.5 -42t10 -50q0 -33 -9.5 -59.5t-28 -48t-45 -41t-60.5 -39.5l160 -215q17 26 25.5 43t17.5 43zM287 44q45 0 78.5 16t61.5 45l-184 244q-48 -27 -70.5 -71t-22.5 -97q0 -25 7 -49.5t23 -44t42 -31.5t65 -12zM237 564q0 -29 14.5 -64.5t37.5 -64.5q55 35 77 66.5t22 69.5
q0 35 -20.5 57t-55.5 22t-55 -23.5t-20 -62.5z" />
    <glyph glyph-name="quotesingle" unicode="'" horiz-adv-x="256" 
d="M186 716l-31 -218h-54l-31 218h116z" />
    <glyph glyph-name="parenleft" unicode="(" horiz-adv-x="382" 
d="M305 733q-35 -69 -57.5 -129t-35 -112t-17 -96.5t-4.5 -82.5q0 -66 11.5 -128t30 -118.5t41 -106t43.5 -89.5q-12 -7 -26 -14t-25 -13q-41 51 -75 109.5t-59 120t-38.5 124.5t-13.5 123q0 79 19 147t47 123.5t59 97.5t55 68z" />
    <glyph glyph-name="parenright" unicode=")" horiz-adv-x="382" 
d="M122 757q24 -26 55 -68t59 -97.5t47 -123.5t19 -147q0 -60 -13.5 -123t-38.5 -124.5t-59 -120t-75 -109.5q-13 7 -25.5 13t-25.5 14q21 40 43.5 90t40.5 106.5t30 118.5t12 127q0 38 -4.5 82.5t-17 96.5t-35 112t-57.5 129z" />
    <glyph glyph-name="asterisk" unicode="*" horiz-adv-x="436" 
d="M191 491l-99 -69l-23 37q-4 5 -4 13q0 7 4 13.5t13 10.5l90 38v3l-117 51l24 38q6 10 20 10q10 0 21 -7l71 -49l3 1l-11 122h39q13 0 21 -6.5t8 -26.5l-9 -89l3 -1l99 69l23 -37q4 -8 4 -13q0 -7 -4 -13.5t-13 -10.5l-90 -38v-3l117 -51l-24 -38q-6 -10 -20 -10
q-11 0 -21 7l-71 49l-3 -1l11 -122h-39q-13 0 -21 6.5t-8 26.5l9 89z" />
    <glyph glyph-name="plus" unicode="+" horiz-adv-x="710" 
d="M91 308v68h226v226h76v-226h226v-68h-226v-226h-76v226h-226z" />
    <glyph glyph-name="comma" unicode="," horiz-adv-x="282" 
d="M135 -4q-29 2 -48.5 21.5t-19.5 48.5t21 49.5t51 20.5t53 -17t23 -52q0 -8 -3.5 -22t-10.5 -28l-63 -127l-47 18z" />
    <glyph glyph-name="hyphen" unicode="-" horiz-adv-x="399" 
d="M50 284h299v-71h-299v71z" />
    <glyph glyph-name="period" unicode="." horiz-adv-x="282" 
d="M67 62q0 31 21.5 52.5t52.5 21.5t52.5 -21.5t21.5 -52.5t-21.5 -52.5t-52.5 -21.5t-52.5 21.5t-21.5 52.5z" />
    <glyph glyph-name="slash" unicode="/" horiz-adv-x="608" 
d="M10 -169l519 900l59 -34l-520 -895z" />
    <glyph glyph-name="zero" unicode="0" 
d="M35 346q0 74 13 140.5t42 116t74.5 78.5t110.5 29t110.5 -29t74.5 -78.5t42 -116t13 -140.5q0 -77 -13 -143t-42 -114.5t-74.5 -76t-110.5 -27.5t-110.5 27.5t-74.5 76t-42 114.5t-13 143zM405 347q0 51 -4.5 105.5t-18.5 99.5t-39.5 74.5t-67.5 29.5t-67.5 -29.5
t-39.5 -74.5t-18.5 -99.5t-4.5 -105.5q0 -57 4.5 -112.5t18.5 -99t39.5 -70t67.5 -26.5t67.5 26.5t39.5 70t18.5 99t4.5 112.5z" />
    <glyph glyph-name="one" unicode="1" 
d="M345 0h-106v633l-128 -41l-11 57l139 50q30 11 56 11q22 0 36 -14.5t14 -45.5v-650z" />
    <glyph glyph-name="two" unicode="2" 
d="M55 515v95q0 17 7.5 31t30.5 26q44 23 87 33t97 10q57 0 97.5 -13t66 -36.5t37 -56t11.5 -71.5t-15 -77t-41 -77t-61.5 -78t-76.5 -79l-146 -143h278v92h62v-122q0 -21 -9 -35t-32 -14h-398v69l196 211q70 75 100 136.5t30 109.5q0 25 -6 48t-21 39.5t-39.5 26.5
t-60.5 10q-37 0 -65 -6.5t-54 -24.5v-104h-75z" />
    <glyph glyph-name="three" unicode="3" 
d="M58 517v105q0 17 5.5 28.5t21.5 19.5q36 18 80.5 29t84.5 11q111 0 167.5 -45.5t56.5 -130.5q0 -35 -10.5 -62t-27.5 -48t-39 -35t-45 -21v-6q31 -6 58 -18.5t46 -33t30 -50t11 -69.5q0 -44 -16 -81.5t-48 -65.5t-79.5 -43.5t-109.5 -15.5q-28 0 -62 4t-63.5 13.5
t-49.5 24.5t-20 38v108h75v-104q12 -6 23 -10.5t23 -7.5t27 -4.5t36 -1.5q28 0 55.5 8t49 26t35 46.5t13.5 68.5q0 26 -7 51t-24 44.5t-44.5 31t-68.5 11.5h-46v61h51q36 0 58.5 12t35.5 30t18 40t5 42q0 40 -11.5 66t-29.5 41t-40.5 20.5t-43.5 5.5q-30 0 -55 -7.5
t-51 -21.5v-104h-75z" />
    <glyph glyph-name="four" unicode="4" 
d="M329 0v145h-315v61l304 459q20 30 36.5 37.5t30.5 7.5q21 0 35.5 -13t14.5 -48v-435h75v-69h-75v-145h-106zM330 563l-233 -349h233v349z" />
    <glyph glyph-name="five" unicode="5" 
d="M145 63q20 -8 41.5 -13t55.5 -5q29 0 54 9t43.5 30t29 54.5t10.5 82.5q0 45 -10.5 76t-27 51t-37.5 29t-42 9q-36 0 -63 -13t-43 -30h-66v305q0 19 12.5 33t44.5 14h294v-79h-280v-211q16 15 34.5 25t36.5 15t35.5 7t32.5 2q88 0 139 -59t51 -165q0 -46 -12.5 -90
t-41 -78.5t-75.5 -55.5t-115 -21q-25 0 -55.5 4t-57.5 13t-45 23t-18 34v98h75v-94z" />
    <glyph glyph-name="six" unicode="6" 
d="M382 555v84q-20 8 -36.5 10t-38.5 2q-25 0 -53 -10t-51 -42t-38.5 -91.5t-15.5 -157.5h5q12 26 30 44t38.5 28.5t42.5 15t42 4.5q46 0 81 -16.5t58.5 -45.5t35.5 -69t12 -88q0 -53 -16 -97t-44.5 -75.5t-68.5 -48.5t-89 -17q-69 0 -113 26.5t-69.5 71t-35.5 103
t-10 122.5q0 126 20 204.5t55 122.5t81 59.5t99 15.5q13 0 29.5 -2t33 -5t31.5 -7t27 -9q18 -8 25.5 -19t7.5 -28v-85h-75zM276 374q-23 0 -44 -11t-37 -31.5t-25.5 -50.5t-9.5 -68q0 -32 5.5 -63.5t19 -56t36 -39.5t55.5 -15q51 0 80.5 48t29.5 126q0 77 -30.5 119
t-79.5 42z" />
    <glyph glyph-name="seven" unicode="7" 
d="M48 650q0 45 46 45h391v-67q-48 -77 -83.5 -155.5t-61 -157.5t-42.5 -158t-29 -157h-113q11 77 36.5 160.5t59 164.5t73 156t79.5 135h-294v-101h-62v135z" />
    <glyph glyph-name="eight" unicode="8" 
d="M378 375q66 -15 98.5 -63.5t32.5 -114.5q0 -51 -17 -90.5t-48 -66.5t-74 -41t-95 -14t-95 14t-74 41t-48 66.5t-17 90.5q0 66 32.5 112.5t98.5 65.5v6q-24 7 -45.5 21t-37.5 33.5t-25.5 44t-9.5 52.5q0 32 11 63.5t37 57t68.5 41.5t104.5 16t104.5 -16t68.5 -41t37 -57
t11 -63q0 -29 -9.5 -54t-25.5 -44.5t-37.5 -33.5t-45.5 -20v-6zM151 197q0 -43 10.5 -73t27.5 -49t39.5 -27.5t46.5 -8.5t46.5 8.5t39.5 27t27.5 48.5t10.5 74q0 42 -11.5 71.5t-29.5 48t-40 27t-43 8.5t-43 -8.5t-40 -27t-29.5 -48t-11.5 -71.5zM275 401q22 0 43 7t37 23
t26 41t10 60q0 36 -11.5 60t-28.5 38.5t-37.5 20t-38.5 5.5t-38.5 -5.5t-37.5 -20t-28.5 -38.5t-11.5 -60q0 -35 10 -60t26 -41t37 -23t43 -7z" />
    <glyph glyph-name="nine" unicode="9" 
d="M144 141v-85q20 -8 35.5 -10t34.5 -2q29 0 58 11.5t52 43.5t37.5 89t14.5 148h-5q-12 -25 -29 -41.5t-36.5 -26.5t-39.5 -14t-38 -4q-44 0 -79 16t-59.5 45.5t-38 70t-13.5 90.5q0 53 15.5 97t44 75.5t69.5 48.5t92 17q67 0 110.5 -23t69 -64t35.5 -96.5t10 -120.5
q0 -126 -20.5 -207.5t-56.5 -129t-85.5 -66t-106.5 -18.5q-14 0 -38.5 3t-48.5 10.5t-41.5 21.5t-17.5 35v86h75zM255 318q23 0 43.5 11.5t36 32.5t24.5 51.5t9 68.5q0 32 -5.5 63.5t-18 56t-34.5 39.5t-55 15q-51 0 -81 -48t-30 -126q0 -77 31 -120.5t80 -43.5z" />
    <glyph glyph-name="colon" unicode=":" horiz-adv-x="282" 
d="M67 62q0 31 21.5 52.5t52.5 21.5t52.5 -21.5t21.5 -52.5t-21.5 -52.5t-52.5 -21.5t-52.5 21.5t-21.5 52.5zM67 414q0 31 21.5 52.5t52.5 21.5t52.5 -21.5t21.5 -52.5t-21.5 -52.5t-52.5 -21.5t-52.5 21.5t-21.5 52.5z" />
    <glyph glyph-name="semicolon" unicode=";" horiz-adv-x="282" 
d="M135 -4q-29 2 -48.5 21.5t-19.5 48.5t21 49.5t51 20.5t53 -17t23 -52q0 -8 -3.5 -22t-10.5 -28l-63 -127l-47 18zM67 414q0 31 21.5 52.5t52.5 21.5t52.5 -21.5t21.5 -52.5t-21.5 -52.5t-52.5 -21.5t-52.5 21.5t-21.5 52.5z" />
    <glyph glyph-name="less" unicode="&#x3c;" horiz-adv-x="779" 
d="M650 632l29 -66l-468 -225l468 -227l-29 -64l-590 291z" />
    <glyph glyph-name="equal" unicode="=" horiz-adv-x="710" 
d="M91 226v68h528v-68h-528zM91 403v68h528v-68h-528z" />
    <glyph glyph-name="greater" unicode="&#x3e;" horiz-adv-x="779" 
d="M719 341l-590 -291l-29 64l468 227l-468 225l29 66z" />
    <glyph glyph-name="question" unicode="?" horiz-adv-x="499" 
d="M40 517v97q0 17 7.5 31t30.5 26q39 20 82.5 29.5t85.5 9.5q64 0 101.5 -17t57 -41t24.5 -50t5 -44q0 -29 -8 -54t-21 -47.5t-29.5 -43t-34.5 -41.5t-33.5 -41.5t-26.5 -42.5t-18 -47t-7 -55h-90q1 62 19 105.5t43 79.5q15 22 32 42.5t30.5 42.5t22.5 46.5t9 54.5
q0 42 -28.5 67.5t-74.5 25.5q-31 0 -56 -6.5t-48 -22.5v-104h-75zM144 49q0 27 20.5 46.5t48.5 19.5t48.5 -19.5t20.5 -46.5q0 -26 -20.5 -45t-48.5 -19t-48.5 19t-20.5 45z" />
    <glyph glyph-name="at" unicode="@" horiz-adv-x="850" 
d="M549 200q-1 -4 -1 -10q0 -13 7 -15.5t12 -2.5q38 0 69 14.5t53.5 41t35 63t12.5 80.5q0 54 -26 101t-68 82t-95.5 55t-109.5 20q-60 0 -116.5 -23.5t-101 -64.5t-71.5 -98.5t-27 -124.5q0 -60 22.5 -117t64.5 -101t101 -70.5t133 -26.5q45 0 90.5 12t104.5 50
q9 -11 16.5 -22t17.5 -23q-51 -35 -105.5 -56.5t-128.5 -21.5q-65 0 -132.5 24.5t-123.5 72t-91.5 117.5t-35.5 162q0 79 31.5 147t84 118t121 78t143.5 28q72 0 139 -23t118.5 -65t82 -100.5t30.5 -129.5q0 -54 -18 -99.5t-51 -78.5t-80.5 -51.5t-107.5 -18.5
q-41 0 -59.5 12.5t-22.5 32.5q-21 -20 -49.5 -32.5t-64.5 -12.5q-54 0 -84 31t-30 88q0 48 15 95t43.5 84t69.5 60t94 23q32 0 55.5 -8t40.5 -20q2 6 3.5 14.5t2.5 13.5h53zM518 441q-12 8 -25.5 13t-28.5 5q-34 0 -60 -21.5t-43.5 -53t-26.5 -68t-9 -67.5q0 -75 55 -75
q26 0 52.5 19t43.5 45l-1 -1z" />
    <glyph glyph-name="A" unicode="A" horiz-adv-x="714" 
d="M610 0q-31 0 -45 10.5t-24 37.5l-48 134h-295l-66 -182h-92l249 649h-75v46h119q23 0 39.5 -2.5t29 -10t21.5 -21.5t17 -36l212 -566l22 -59h-64zM350 589h-4l-128 -348h256z" />
    <glyph glyph-name="B" unicode="B" horiz-adv-x="674" 
d="M40 695h323q110 0 167 -42.5t57 -129.5q0 -23 -8 -46.5t-23.5 -43.5t-37.5 -35.5t-49 -22.5v-7q40 -7 69.5 -22.5t48.5 -37.5t28 -48t9 -54q0 -44 -12.5 -76.5t-33 -55.5t-47 -37.5t-55 -22.5t-57 -11t-51.5 -3h-258v649h-70v46zM217 335v-277h136q23 0 50.5 6t51.5 22
t40 45t16 75q0 41 -16 66.5t-41 39.5t-54.5 18.5t-56.5 4.5h-126zM217 392h118q21 0 45.5 4.5t45.5 18t34.5 38t13.5 63.5q0 37 -15 60.5t-37 37t-47.5 18.5t-47.5 5h-110v-245z" />
    <glyph glyph-name="C" unicode="C" horiz-adv-x="615" 
d="M486 516v112q-12 5 -22.5 9t-22.5 7t-27 4.5t-37 1.5q-45 0 -82.5 -21t-64.5 -60t-42 -95.5t-15 -128.5q0 -79 15 -136t43.5 -93.5t68.5 -54t90 -17.5q42 0 80 9t78 31l22 -56q-41 -20 -87 -31.5t-114 -11.5q-81 0 -139.5 27t-96 75t-55.5 114t-18 145q0 92 24 160.5
t66 113.5t98.5 67.5t121.5 22.5q48 0 86 -6.5t80 -23.5q17 -8 23.5 -19.5t6.5 -28.5v-116h-80z" />
    <glyph glyph-name="D" unicode="D" horiz-adv-x="710" 
d="M298 695q37 0 77.5 -5t80 -18.5t74.5 -37.5t62 -62.5t42.5 -93.5t15.5 -130q0 -69 -16 -122t-43 -91.5t-62.5 -64.5t-74 -41.5t-77.5 -22t-74 -6.5h-193v649h-70v46h258zM218 637v-579h63q52 0 99 15t81.5 49.5t55 89.5t20.5 136q0 84 -20.5 139.5t-55 88.5t-81.5 47
t-99 14h-63z" />
    <glyph glyph-name="E" unicode="E" horiz-adv-x="621" 
d="M218 59h271v100h80v-114q0 -45 -46 -45h-413v649h-70v46h459q46 0 46 -45v-110h-80v96h-247v-243h252v-59h-252v-275z" />
    <glyph glyph-name="F" unicode="F" horiz-adv-x="592" 
d="M218 636v-243h252v-59h-252v-334h-108v649h-70v46h459q46 0 46 -45v-110h-80v96h-247z" />
    <glyph glyph-name="G" unicode="G" horiz-adv-x="707" 
d="M510 520v105q-17 6 -31 11t-27.5 8t-28.5 4.5t-35 1.5q-49 0 -89 -21t-68 -60t-43 -95.5t-15 -128.5q0 -79 15 -136t43.5 -93.5t69.5 -54t92 -17.5q25 0 59.5 2t65.5 13v223h-119v50h147q35 0 55.5 -13.5t20.5 -55.5v-232q-63 -24 -122.5 -35t-126.5 -11q-83 0 -142.5 27
t-97.5 75t-55.5 114t-17.5 145q0 92 23.5 160.5t66 113.5t101.5 67.5t129 22.5q49 0 92 -7.5t88 -25.5q17 -8 23.5 -19.5t6.5 -28.5v-109h-80z" />
    <glyph glyph-name="H" unicode="H" horiz-adv-x="766" 
d="M656 0h-36q-32 0 -52 16.5t-20 58.5v259h-330v-334h-108v649h-70v46h106q32 0 52 -16.5t20 -58.5v-227h330v302h108v-695z" />
    <glyph glyph-name="I" unicode="I" horiz-adv-x="328" 
d="M218 0h-108v649h-70v46h106q32 0 52 -16.5t20 -58.5v-620z" />
    <glyph glyph-name="J" unicode="J" horiz-adv-x="424" 
d="M319 241q0 -22 -1 -50t-6.5 -56.5t-18 -55.5t-35 -48t-57.5 -33.5t-86 -12.5q-29 0 -57.5 5.5t-44.5 11.5l10 53q17 -7 36 -11t42 -4q39 0 61.5 16t33 40t13 52t2.5 51v450h-70v46h106q32 0 52 -16.5t20 -58.5v-379z" />
    <glyph glyph-name="K" unicode="K" horiz-adv-x="670" 
d="M218 0h-108v649h-70v46h106q32 0 52 -16.5t20 -58.5v-230h9l206 220q29 31 48 48t35 25t32.5 10t41.5 2h41v-79h-86q-23 -14 -39 -27.5t-33 -30.5l-174 -183l361 -375h-88q-27 0 -44.5 6.5t-36.5 27.5l-264 290h-9v-324z" />
    <glyph glyph-name="L" unicode="L" horiz-adv-x="574" 
d="M218 59h241v103h80v-117q0 -45 -46 -45h-383v649h-70v46h106q32 0 52 -16.5t20 -58.5v-561z" />
    <glyph glyph-name="M" unicode="M" horiz-adv-x="914" 
d="M110 0v649h-70v46h120q30 0 54.5 -13.5t39.5 -50.5l201 -503h5l223 567h121v-695h-36q-32 0 -51.5 16.5t-19.5 58.5v452h-10l-211 -527h-64l-212 521h-10v-521h-80z" />
    <glyph glyph-name="N" unicode="N" horiz-adv-x="764" 
d="M110 0v649h-70v46h104q22 0 38 -2.5t29 -9.5t23.5 -19t22.5 -31l310 -494h6v556h81v-695h-44q-32 0 -53 10.5t-35 33.5l-324 504h-7v-548h-81z" />
    <glyph glyph-name="O" unicode="O" horiz-adv-x="736" 
d="M676 348q0 -26 -4 -63t-16 -77.5t-33.5 -80.5t-55.5 -71.5t-83.5 -51t-116.5 -19.5t-116 19.5t-83.5 51t-55.5 71.5t-32.5 80.5t-15.5 77.5t-4 63t4 63t15.5 77.5t32.5 80t55.5 71t83 51t116.5 19.5q67 0 116.5 -19.5t83.5 -51t55.5 -71t33.5 -80t16 -77.5t4 -63z
M563 348q0 20 -2.5 51t-9.5 65.5t-20.5 68.5t-35.5 61.5t-53.5 44.5t-74.5 17t-74 -17t-52.5 -44.5t-34.5 -61.5t-20.5 -68.5t-10 -65.5t-2.5 -51t2.5 -50.5t10 -65t20.5 -69t34.5 -62t52.5 -45t74 -17.5t74.5 17.5t53.5 45t35.5 62t20.5 69t9.5 65t2.5 50.5z" />
    <glyph glyph-name="P" unicode="P" horiz-adv-x="645" 
d="M110 0v649h-70v46h284q20 0 48 -1.5t58 -8.5t60 -21t54 -38t38.5 -60t14.5 -88q0 -46 -16.5 -85.5t-50 -69t-85 -46t-120.5 -16.5h-107v-261h-108zM217 637v-317h107q74 0 117 38t43 120q0 31 -8 60t-26.5 51t-49.5 35t-76 13h-107z" />
    <glyph glyph-name="Q" unicode="Q" horiz-adv-x="736" 
d="M676 348q0 -29 -5 -70.5t-20 -85.5t-41.5 -86t-69.5 -72l68 -80l-57 -46l-79 92q-23 -7 -49 -11t-56 -4q-67 0 -116 19.5t-83.5 51t-55.5 71.5t-32.5 80.5t-15.5 77.5t-4 63t4 63t15.5 77.5t32.5 80t55.5 71t83 51t116.5 19.5q67 0 116.5 -19.5t83.5 -51t55.5 -71
t33.5 -80t16 -77.5t4 -63zM489 93q24 27 38.5 62.5t22.5 71.5t10.5 68t2.5 53q0 20 -2.5 51t-9.5 65.5t-20.5 68.5t-35.5 61.5t-53.5 44.5t-74.5 17t-74 -17t-52.5 -44.5t-34.5 -61.5t-20.5 -68.5t-10 -65.5t-2.5 -51t2.5 -50.5t10 -65t20.5 -69t34.5 -62t52.5 -45t74 -17.5
q34 0 62 11l-67 79l57 46z" />
    <glyph glyph-name="R" unicode="R" horiz-adv-x="674" 
d="M346 695q50 0 96 -8t81.5 -29t56.5 -57t21 -93q0 -44 -17.5 -78t-45 -58t-61.5 -38.5t-68 -18.5l225 -315h-62q-46 0 -67 11t-36 35l-169 261h-82v-307h-108v649h-70v46h306zM217 637v-272h111q26 0 54.5 8t52 25.5t38.5 44.5t15 65q0 42 -15.5 67t-39 39t-50 18.5
t-47.5 4.5h-119z" />
    <glyph glyph-name="S" unicode="S" horiz-adv-x="630" 
d="M440 514v112q-18 7 -32 11.5t-27.5 7.5t-29.5 4t-38 1q-36 0 -62 -10t-42.5 -26.5t-24 -37t-7.5 -42.5q0 -27 9 -46.5t28 -34t47 -27t67 -26.5q66 -24 114 -44.5t79.5 -44.5t47 -55t15.5 -75t-19 -80t-55 -61.5t-89 -40t-121 -14.5q-63 0 -115.5 11.5t-94.5 30.5
q-13 6 -21.5 18t-8.5 35v114h80v-116q30 -15 67 -24t88 -9q46 0 79 9.5t55 26.5t32.5 39.5t10.5 49.5q0 29 -11 49.5t-32.5 36.5t-54.5 29.5t-78 30.5q-52 19 -95 36.5t-74 40.5t-48 55t-17 80q0 40 16.5 73.5t48 57.5t77 37.5t102.5 13.5q51 0 95 -7.5t89 -24.5
q17 -8 23.5 -19.5t6.5 -28.5v-116h-80z" />
    <glyph glyph-name="T" unicode="T" horiz-adv-x="671" 
d="M377 636v-636h-108v636h-159v-116h-80v130q0 45 46 45h494q46 0 46 -45v-130h-80v116h-159z" />
    <glyph glyph-name="U" unicode="U" horiz-adv-x="748" 
d="M638 263q0 -46 -10.5 -95t-39 -89.5t-79.5 -67t-133 -26.5q-87 0 -140.5 26.5t-82.5 67.5t-38.5 90t-9.5 94v386h-70v46h106q32 0 52 -16.5t20 -58.5v-369q0 -104 42.5 -153t127.5 -49q81 0 128 50t47 152v444h80v-432z" />
    <glyph glyph-name="V" unicode="V" horiz-adv-x="682" 
d="M637 695l-238 -695h-111l-218 649h-70v46h101q42 0 60.5 -19.5t28.5 -50.5l166 -519h7l192 589h82z" />
    <glyph glyph-name="W" unicode="W" horiz-adv-x="953" 
d="M112 695q42 0 61 -19t26 -51l103 -481h7l143 551h75l151 -566h7l131 566h82l-168 -695h-109l-141 493h-7l-131 -493h-109l-153 649h-70v46h102z" />
    <glyph glyph-name="X" unicode="X" horiz-adv-x="644" 
d="M381 377l238 -377h-56q-22 0 -36.5 3.5t-25 9.5t-17.5 15t-14 20l-153 247h-4l-196 -295h-92l245 358l-175 291h-69v46h104q32 0 50 -13.5t35 -42.5l117 -203h6l165 259h88z" />
    <glyph glyph-name="Y" unicode="Y" horiz-adv-x="651" 
d="M621 695l-241 -432v-263h-108v263l-212 386h-70v46h95q35 0 56.5 -13t36.5 -42l162 -308h4l193 363h84z" />
    <glyph glyph-name="Z" unicode="Z" horiz-adv-x="619" 
d="M158 59h326v111h80v-125q0 -45 -46 -45h-463v32q0 34 10 54.5t27 45.5l339 504h-273v-112h-80v116q0 29 12.5 42t43.5 13h410v-39q0 -20 -7.5 -39.5t-18.5 -36.5z" />
    <glyph glyph-name="bracketleft" unicode="[" horiz-adv-x="339" 
d="M309 -138v-52h-229v900h229v-52h-140v-796h140z" />
    <glyph glyph-name="backslash" unicode="\" horiz-adv-x="668" 
d="M570 -198l1 -2l-521 897l59 34l518 -900z" />
    <glyph glyph-name="bracketright" unicode="]" horiz-adv-x="339" 
d="M170 658h-140v52h229v-900h-229v52h140v796z" />
    <glyph glyph-name="asciicircum" unicode="^" horiz-adv-x="510" 
d="M155 474h-90l190 221l190 -221h-92l-98 115z" />
    <glyph glyph-name="underscore" unicode="_" horiz-adv-x="591" 
d="M0 -157h591v-59h-591v59z" />
    <glyph glyph-name="grave" unicode="`" horiz-adv-x="612" 
d="M343 565l-119 164h114l71 -164h-66z" />
    <glyph glyph-name="a" unicode="a" horiz-adv-x="570" 
d="M90 345v79q0 33 33 48q48 18 89 23t73 5q57 0 94.5 -11t60 -32t31.5 -51.5t9 -69.5v-336h-40q-60 0 -63 59h-2q-46 -42 -88.5 -56.5t-77.5 -14.5q-39 0 -68.5 10.5t-49 29t-29 43.5t-9.5 54q0 32 11.5 61.5t40 52.5t76 37t119.5 14h76v39q0 65 -28.5 90t-80.5 25
q-31 0 -56 -5t-54 -18v-76h-67zM323 240q-50 0 -82 -8.5t-50.5 -23.5t-26 -34.5t-7.5 -41.5q0 -39 24 -59t62 -20q21 0 41.5 7t37.5 17.5t31.5 24t23.5 25.5v113h-54z" />
    <glyph glyph-name="b" unicode="b" horiz-adv-x="578" 
d="M90 703h-60v42h100q32 0 47.5 -18t15.5 -47v-218q27 18 59 28t74 10q94 0 145.5 -64t51.5 -182q0 -135 -62.5 -200.5t-171.5 -65.5q-18 0 -42.5 3t-51 10t-53.5 19t-52 31v652zM192 68q42 -27 97 -27q29 0 52.5 10.5t40.5 35.5t26.5 66t9.5 101q0 99 -32 143t-87 44
q-26 0 -51.5 -8.5t-55.5 -31.5v-333z" />
    <glyph glyph-name="c" unicode="c" horiz-adv-x="499" 
d="M389 333v89q-26 13 -44.5 17t-40.5 4q-29 0 -55.5 -10.5t-46 -34.5t-31 -63t-11.5 -96q0 -54 11.5 -91.5t32 -60t48 -32.5t59.5 -10q30 0 59 9.5t67 33.5l22 -50q-42 -27 -85 -38.5t-80 -11.5q-52 0 -96 13t-75.5 43t-49.5 79t-18 121q0 68 19.5 116.5t52.5 79.5t77 45.5
t94 14.5q69 0 129 -27q17 -9 23 -19.5t6 -31.5v-89h-67z" />
    <glyph glyph-name="d" unicode="d" horiz-adv-x="580" 
d="M425 745q32 0 47.5 -18t15.5 -47v-680h-40q-29 0 -42.5 14.5t-15.5 40.5h-3q-26 -26 -64.5 -46.5t-81.5 -20.5q-37 0 -71 13t-59.5 42t-40.5 76t-15 116q0 72 17 122.5t44.5 82t64 46t75.5 14.5q40 0 69.5 -5.5t59.5 -20.5v229h-60v42h100zM386 413q-23 17 -52.5 25
t-48.5 8q-66 0 -95.5 -55t-29.5 -155q0 -98 30.5 -140.5t79.5 -42.5q29 0 61.5 17.5t54.5 47.5v295z" />
    <glyph glyph-name="e" unicode="e" horiz-adv-x="528" 
d="M311 45q20 0 36.5 2t32 7t32 13.5t37.5 20.5l22 -50q-33 -20 -75.5 -35t-102.5 -15q-63 0 -108.5 18t-74 51.5t-42 81t-13.5 105.5q0 55 14.5 102t43 81.5t71 53.5t99.5 19q95 0 149 -58.5t54 -179.5v-31h-328q0 -95 37 -140.5t116 -45.5zM280 450q-47 0 -81 -44.5
t-39 -124.5h232q-2 45 -12 77.5t-25 52.5t-34.5 29.5t-40.5 9.5z" />
    <glyph glyph-name="f" unicode="f" horiz-adv-x="385" 
d="M343 615v73q-16 3 -27.5 4.5t-22.5 1.5q-44 0 -69.5 -29.5t-25.5 -96.5v-80h155v-52h-155v-436h-103v436h-60v52h60v53q0 53 14 91.5t39.5 63.5t61 37t78.5 12q23 0 45.5 -3t41.5 -8q18 -6 26.5 -15t8.5 -32v-72h-67z" />
    <glyph glyph-name="g" unicode="g" horiz-adv-x="580" 
d="M488 -5q0 -65 -20.5 -108.5t-55 -69.5t-80 -36.5t-94.5 -10.5q-16 0 -34.5 1.5t-37.5 5t-37.5 8.5t-33.5 12l12 54q33 -16 61.5 -23.5t70.5 -7.5q28 0 54.5 6.5t46.5 23.5t32.5 46.5t12.5 75.5v78q-21 -26 -57 -44t-78 -18q-94 0 -144.5 62.5t-50.5 180.5q0 64 16 114
t46 84.5t72.5 52.5t95.5 18q48 0 81 -13t62 -31v44h60v-505zM386 419q-18 11 -40.5 18t-51.5 7q-26 0 -50 -12t-43 -38t-30 -67t-11 -98q0 -95 32 -135.5t80 -40.5q36 0 65 18t49 47v301z" />
    <glyph glyph-name="h" unicode="h" horiz-adv-x="605" 
d="M133 745q32 0 47.5 -18t15.5 -47v-217q31 17 70.5 27t92.5 10q84 0 120 -37.5t36 -103.5v-359h-40q-32 0 -47.5 18t-15.5 47v281q0 30 -7 49t-19 29.5t-29 14t-37 3.5q-36 0 -70 -15t-54 -33v-394h-103v703h-60v42h100z" />
    <glyph glyph-name="i" unicode="i" horiz-adv-x="290" 
d="M158 0q-32 0 -47.5 18t-15.5 47v381h-60v42h100q32 0 47.5 -18t15.5 -47v-423h-40zM76 644q0 26 18.5 45t44.5 19t45 -19t19 -45t-19 -44.5t-45 -18.5t-44.5 18.5t-18.5 44.5z" />
    <glyph glyph-name="j" unicode="j" horiz-adv-x="290" 
d="M135 488q32 0 47.5 -18t15.5 -47v-445q0 -104 -47.5 -156t-127.5 -52q-14 0 -28.5 2t-27.5 4l5 49q21 -6 42 -6q81 0 81 136v491h-60v42h100zM76 644q0 26 18.5 45t44.5 19t45 -19t19 -45t-19 -44.5t-45 -18.5t-44.5 18.5t-18.5 44.5z" />
    <glyph glyph-name="k" unicode="k" horiz-adv-x="538" 
d="M273 277l265 -277h-73q-26 0 -45 6t-34 23l-184 205h-6v-234h-103v703h-60v42h100q32 0 47.5 -18t15.5 -47v-390h5l160 161q23 23 41.5 30t48.5 7h51v-70h-74q-8 -3 -19.5 -12t-16.5 -14z" />
    <glyph glyph-name="l" unicode="l" horiz-adv-x="288" 
d="M156 0q-32 0 -47.5 18t-15.5 47v638h-60v42h100q32 0 47.5 -18t15.5 -47v-680h-40z" />
    <glyph glyph-name="m" unicode="m" horiz-adv-x="868" 
d="M35 488h93q23 0 36 -11t16 -29q32 23 70.5 37.5t78.5 14.5q49 0 84.5 -14t49.5 -43q36 24 75.5 40.5t90.5 16.5q77 0 113 -33t36 -104v-363h-40q-32 0 -47.5 18t-15.5 47v281q0 30 -6 49t-17 29.5t-25.5 14t-30.5 3.5q-28 0 -56 -14t-52 -34v-394h-103v346q0 30 -6 49
t-16.5 29.5t-25 14t-30.5 3.5q-26 0 -57 -15t-52 -33v-394h-103v446h-60v42z" />
    <glyph glyph-name="n" unicode="n" horiz-adv-x="607" 
d="M35 488h93q23 0 36 -11t16 -29q29 20 71.5 36t97.5 16q92 0 130 -36t38 -110v-354h-40q-32 0 -47.5 18t-15.5 47v281q0 30 -7 49t-19 29.5t-29 14t-37 3.5q-37 0 -70.5 -15.5t-53.5 -34.5v-392h-103v446h-60v42z" />
    <glyph glyph-name="o" unicode="o" horiz-adv-x="570" 
d="M285 -12q-52 0 -94.5 16.5t-72.5 49t-46.5 80t-16.5 110.5q0 64 17 112t48 80t73 48t92 16t92 -16t73 -48t48 -80t17 -112q0 -63 -16.5 -110.5t-46.5 -80t-72.5 -49t-94.5 -16.5zM285 38q27 0 50 11t39.5 36t26 64t9.5 95q0 55 -9.5 94t-26.5 64t-40 36.5t-49 11.5
t-48.5 -11.5t-39.5 -36.5t-27 -64t-10 -94q0 -56 9.5 -95t26 -64t39.5 -36t50 -11z" />
    <glyph glyph-name="p" unicode="p" horiz-adv-x="581" 
d="M33 488h93q23 0 36 -11t16 -29q26 21 62.5 36.5t76.5 15.5q100 0 154.5 -59.5t54.5 -186.5t-57 -196.5t-158 -69.5q-11 0 -26 2t-31 6t-31 10.5t-27 15.5v-242h-103v666h-60v42zM303 442q-33 0 -60.5 -15.5t-47.5 -34.5v-310q12 -11 26.5 -18.5t29 -12t28 -6.5t22.5 -2
q24 0 46 10t38.5 34t26 64.5t9.5 102.5q0 101 -32.5 144.5t-85.5 43.5z" />
    <glyph glyph-name="q" unicode="q" horiz-adv-x="580" 
d="M488 -220h-103v270q-21 -26 -57 -44t-78 -18q-94 0 -144.5 62.5t-50.5 180.5q0 64 16 114t46 84.5t72.5 52.5t95.5 18q48 0 81 -13t62 -31v44h60v-720zM386 419q-18 11 -40.5 18t-51.5 7q-26 0 -50 -12t-43 -38t-30 -67t-11 -98q0 -95 32 -135.5t80 -40.5q36 0 65 18
t49 47v301z" />
    <glyph glyph-name="r" unicode="r" horiz-adv-x="490" 
d="M310 442q-13 0 -28.5 -4.5t-30.5 -12t-29 -17t-24 -20.5v-388h-103v446h-60v42h93q46 0 52 -45q36 25 78 41t80 16q28 0 51.5 -5.5t40.5 -18.5t26 -36t9 -57v-60h-95v38q0 25 -5 41t-13 25t-19 12t-23 3z" />
    <glyph glyph-name="s" unicode="s" horiz-adv-x="503" 
d="M359 343v79q-25 11 -46 16t-57 5q-18 0 -35.5 -4t-31 -13t-22 -22.5t-8.5 -32.5q0 -17 10 -30t26.5 -23.5t38.5 -19t47 -17.5q32 -11 63 -23.5t55 -29.5t39 -41t15 -58q0 -63 -57.5 -102t-159.5 -39q-39 0 -80.5 8t-74.5 23q-8 4 -19.5 13.5t-11.5 33.5v87h67v-82
q27 -14 54.5 -20t60.5 -6q19 0 39.5 3.5t37.5 12.5t28 24.5t11 39.5q0 19 -9.5 32.5t-26 24t-40 19.5t-50.5 19q-35 12 -65 25t-52.5 30t-35.5 40t-13 56q0 42 21.5 67.5t52 39t63 18t53.5 4.5q42 0 78.5 -6.5t72.5 -20.5q17 -9 23 -19.5t6 -31.5v-79h-67z" />
    <glyph glyph-name="t" unicode="t" horiz-adv-x="388" 
d="M35 488h60v75q0 17 6.5 28.5t23.5 18.5l73 29v-151h158v-52h-158v-292q0 -60 24.5 -81.5t69.5 -21.5q12 0 35 5t40 12l11 -43q-30 -13 -66 -20t-65 -7q-44 0 -73 12t-46.5 32t-25 47.5t-7.5 58.5v298h-60v52z" />
    <glyph glyph-name="u" unicode="u" horiz-adv-x="607" 
d="M475 0q-30 0 -43.5 16.5t-15.5 43.5h-2q-31 -32 -78 -52t-90 -20q-36 0 -64 7.5t-48 25.5t-30.5 47t-10.5 72v306h-60v42h100q32 0 47.5 -18t15.5 -47v-276q0 -52 24.5 -70.5t61.5 -18.5q18 0 37 5.5t36.5 14.5t32 21t24.5 24v365h103v-488h-40z" />
    <glyph glyph-name="v" unicode="v" horiz-adv-x="552" 
d="M439 488h78l-190 -488h-98l-169 446h-60v42h92q32 0 52.5 -14.5t33.5 -52.5l111 -328h5z" />
    <glyph glyph-name="w" unicode="w" horiz-adv-x="810" 
d="M620 0h-98l-113 366h-5l-111 -366h-98l-130 446h-60v42h90q21 0 35.5 -6.5t24 -17t15.5 -23.5t9 -26l78 -313h6l111 386h88l113 -391h8l111 391h76z" />
    <glyph glyph-name="x" unicode="x" horiz-adv-x="526" 
d="M501 0h-51q-42 0 -60.5 10.5t-33.5 32.5l-101 150h-3l-137 -193h-87l187 249l-135 197h-55v42h91q29 0 47 -14t37 -43l75 -114h3l121 171h80l-167 -225z" />
    <glyph glyph-name="y" unicode="y" horiz-adv-x="553" 
d="M518 488l-207 -560q-13 -36 -26.5 -63.5t-30 -46.5t-38 -28.5t-51.5 -9.5h-58v73h86q12 7 23 22.5t26 54.5l27 70h-31l-178 446h-60v42h97q26 0 47 -14.5t37 -58.5l117 -322h5l135 395h80z" />
    <glyph glyph-name="z" unicode="z" horiz-adv-x="521" 
d="M466 35q0 -15 -10 -25t-25 -10h-376v21q0 19 3.5 38t21.5 42l261 332h-195v-83h-70v103q0 15 10 25t25 10h343v-35q0 -31 -21 -59l-268 -339h231v78h70v-98z" />
    <glyph glyph-name="braceleft" unicode="{" horiz-adv-x="399" 
d="M349 675q-31 -2 -55.5 -23t-24.5 -64q0 -10 1 -28t1.5 -38t1.5 -39t1 -31q0 -30 -3.5 -58.5t-13.5 -52.5t-28 -43t-47 -31v-12q29 -11 47 -30t28 -43t13.5 -52.5t3.5 -57.5q0 -12 -1 -31t-1.5 -39t-1.5 -38.5t-1 -28.5q0 -42 24.5 -64t55.5 -24v-41q-57 1 -91 20
t-52 45.5t-23.5 55t-5.5 49.5q0 18 0.5 32t1 26.5l1 25t0.5 28.5q0 20 -4 45t-14 47.5t-27.5 39t-44.5 19.5v46q27 3 44.5 19.5t27.5 39t14 47.5t4 45q0 32 -1.5 57t-1.5 53q0 21 5.5 50.5t23.5 56t52 45.5t91 20v-43z" />
    <glyph glyph-name="bar" unicode="|" horiz-adv-x="262" 
d="M92 716h78v-746h-78v746z" />
    <glyph glyph-name="braceright" unicode="}" horiz-adv-x="399" 
d="M50 718q57 -1 91 -20t52 -45.5t23.5 -56t5.5 -50.5q0 -28 -1.5 -53t-1.5 -57q0 -20 4 -45t14 -47.5t27.5 -39t44.5 -19.5v-46q-27 -3 -44.5 -19.5t-27.5 -39t-14 -47.5t-4 -45q0 -16 0.5 -28.5l1 -25t1 -26.5t0.5 -32q0 -21 -5.5 -49.5t-23.5 -55t-52 -45.5t-91 -20v41
q31 2 55.5 24t24.5 64q0 10 -1 28.5t-1.5 38.5t-1.5 39t-1 31q0 29 3.5 57.5t13.5 52.5t28 43t47 30v12q-29 12 -47 31t-28 43t-13.5 52.5t-3.5 58.5q0 12 1 31t1.5 39t1.5 38t1 28q0 43 -24.5 64t-55.5 23v43z" />
    <glyph glyph-name="asciitilde" unicode="~" horiz-adv-x="710" 
d="M631 414q-16 -47 -36.5 -75.5t-42 -43.5t-43.5 -20t-41 -5q-35 0 -67 11t-60.5 23.5t-53 23.5t-43.5 11q-33 0 -51 -18.5t-35 -53.5h-79q23 66 63.5 104t96.5 38q34 0 66.5 -10.5t62.5 -23.5t56.5 -23.5t49.5 -10.5q28 0 46.5 15.5t32.5 57.5h78z" />
    <glyph glyph-name="dieresis" horiz-adv-x="551" 
d="M115 644q0 26 18.5 45t44.5 19t45 -19t19 -45t-19 -44.5t-45 -18.5t-44.5 18.5t-18.5 44.5zM309 644q0 26 18.5 45t44.5 19t45 -19t19 -45t-19 -44.5t-45 -18.5t-44.5 18.5t-18.5 44.5z" />
    <glyph glyph-name="acute" horiz-adv-x="604" 
d="M225 565l72 164h112l-118 -164h-66z" />
    <glyph glyph-name="afii10023" unicode="&#x401;" horiz-adv-x="621" 
d="M218 59h271v100h80v-114q0 -45 -46 -45h-413v649h-70v46h459q46 0 46 -45v-110h-80v96h-247v-243h252v-59h-252v-275zM132 842q0 29 19 48.5t45 19.5q27 0 46.5 -19.5t19.5 -48.5q0 -25 -19.5 -43.5t-46.5 -18.5q-26 0 -45 18.5t-19 43.5zM337 842q0 29 19 48.5t46 19.5
q25 0 44.5 -19.5t19.5 -48.5q0 -25 -19.5 -43.5t-44.5 -18.5q-27 0 -46 18.5t-19 43.5z" />
    <glyph glyph-name="afii10051" unicode="&#x402;" horiz-adv-x="818" 
d="M476 -9v62h17q29 0 59.5 5.5t55.5 23t41 50t16 87.5q0 31 -8 57t-24.5 45t-41.5 30t-59 11q-33 0 -76 -8t-79 -31v-323h-108v636h-159v-116h-80v130q0 45 46 45h494q46 0 46 -45v-120h-80v106h-159v-250q45 20 88 29.5t91 9.5q51 0 92 -12.5t70 -38t44.5 -64t15.5 -91.5
q0 -57 -19.5 -99.5t-56 -71t-88.5 -43t-117 -14.5h-21z" />
    <glyph glyph-name="afii10052" unicode="&#x403;" horiz-adv-x="592" 
d="M218 636v-636h-108v649h-70v46h459q46 0 46 -45v-133h-80v119h-247zM248 769l73 168h116l-120 -168h-69z" />
    <glyph glyph-name="afii10053" unicode="&#x404;" horiz-adv-x="615" 
d="M486 516v112q-12 5 -22.5 9t-22.5 7t-27 4.5t-37 1.5q-43 0 -79 -18.5t-62.5 -54t-43 -86.5t-19.5 -115h280v-59h-280q6 -143 64 -208t153 -65q42 0 80 9t78 31l22 -56q-41 -20 -87 -31.5t-114 -11.5q-81 0 -139.5 27t-96 75t-55.5 114t-18 145q0 92 24 160.5t66 113.5
t98.5 67.5t121.5 22.5q48 0 86 -6.5t80 -23.5q17 -8 23.5 -19.5t6.5 -28.5v-116h-80z" />
    <glyph glyph-name="afii10054" unicode="&#x405;" horiz-adv-x="630" 
d="M440 514v112q-18 7 -32 11.5t-27.5 7.5t-29.5 4t-38 1q-36 0 -62 -10t-42.5 -26.5t-24 -37t-7.5 -42.5q0 -27 9 -46.5t28 -34t47 -27t67 -26.5q66 -24 114 -44.5t79.5 -44.5t47 -55t15.5 -75t-19 -80t-55 -61.5t-89 -40t-121 -14.5q-63 0 -115.5 11.5t-94.5 30.5
q-13 6 -21.5 18t-8.5 35v114h80v-116q30 -15 67 -24t88 -9q46 0 79 9.5t55 26.5t32.5 39.5t10.5 49.5q0 29 -11 49.5t-32.5 36.5t-54.5 29.5t-78 30.5q-52 19 -95 36.5t-74 40.5t-48 55t-17 80q0 40 16.5 73.5t48 57.5t77 37.5t102.5 13.5q51 0 95 -7.5t89 -24.5
q17 -8 23.5 -19.5t6.5 -28.5v-116h-80z" />
    <glyph glyph-name="afii10055" unicode="&#x406;" horiz-adv-x="328" 
d="M218 0h-108v649h-70v46h106q32 0 52 -16.5t20 -58.5v-620z" />
    <glyph glyph-name="afii10056" unicode="&#x407;" horiz-adv-x="328" 
d="M-16 842q0 29 18.5 48.5t44.5 19.5q27 0 46.5 -19.5t19.5 -48.5q0 -25 -19.5 -43.5t-46.5 -18.5q-26 0 -44.5 18.5t-18.5 43.5zM168 842q0 29 19.5 48.5t46.5 19.5q25 0 44.5 -19.5t19.5 -48.5q0 -25 -19.5 -43.5t-44.5 -18.5q-27 0 -46.5 18.5t-19.5 43.5zM218 0h-108
v649h-70v46h106q32 0 52 -16.5t20 -58.5v-620z" />
    <glyph glyph-name="afii10057" unicode="&#x408;" horiz-adv-x="424" 
d="M319 241q0 -22 -1 -50t-6.5 -56.5t-18 -55.5t-35 -48t-57.5 -33.5t-86 -12.5q-29 0 -57.5 5.5t-44.5 11.5l10 53q17 -7 36 -11t42 -4q39 0 61.5 16t33 40t13 52t2.5 51v450h-70v46h106q32 0 52 -16.5t20 -58.5v-379z" />
    <glyph glyph-name="afii10058" unicode="&#x409;" horiz-adv-x="1023" 
d="M567 0q-32 0 -52 16.5t-20 58.5v561h-223v-100q0 -138 -9 -239t-33.5 -167t-67 -98t-109.5 -32h-33v84h63q19 4 38 22.5t35 63t26 121t10 197.5v161h-70v46h412q32 0 50.5 -15t18.5 -57v-230h123q20 0 46.5 -1t55 -7t56.5 -17.5t50 -33t35.5 -53.5t13.5 -79
q0 -46 -14.5 -79t-38 -55.5t-53 -35.5t-58 -20.5t-54 -9.5t-41.5 -2h-157zM601 334v-276h125q40 0 68 12.5t44.5 33t24 46t7.5 52.5q0 24 -7.5 47.5t-24 42.5t-44.5 30.5t-68 11.5h-125z" />
    <glyph glyph-name="afii10059" unicode="&#x40a;" horiz-adv-x="1071" 
d="M615 0q-32 0 -52 16.5t-20 58.5v261h-325v-334h-108v649h-70v46h106q32 0 52 -16.5t20 -58.5v-227h325v302h108v-304h123q19 0 46 -1t55.5 -7t56.5 -17.5t50 -33t35.5 -53.5t13.5 -79q0 -46 -14.5 -79t-38 -55.5t-53 -35.5t-58 -20.5t-54 -9.5t-41.5 -2h-157zM649 334
v-276h125q40 0 68 12.5t44.5 33t24 46t7.5 52.5q0 24 -7.5 47.5t-24 42.5t-44.5 30.5t-68 11.5h-125z" />
    <glyph glyph-name="afii10060" unicode="&#x40b;" horiz-adv-x="868" 
d="M377 0h-108v636h-159v-116h-80v130q0 45 46 45h494q46 0 46 -45v-120h-80v106h-159v-250q45 20 88.5 29.5t97.5 9.5q46 0 83.5 -10t64.5 -33.5t42 -62t15 -95.5v-224h-31q-32 0 -52 16.5t-20 58.5v159q0 67 -32 97.5t-101 30.5q-33 0 -76 -7t-79 -32v-323z" />
    <glyph glyph-name="afii10061" unicode="&#x40c;" horiz-adv-x="669" 
d="M218 0h-108v649h-70v46h106q32 0 52 -16.5t20 -58.5v-237h39l167 215q27 33 47 52t38 29t36.5 13t42.5 3h41v-80h-86q-23 -14 -44 -32.5t-39 -41.5l-136 -174q19 -9 34.5 -19t29 -23t27 -29t28.5 -36l201 -260h-79q-27 0 -45.5 5.5t-35.5 28.5l-214 291h-52v-325z
M285 769l73 168h116l-120 -168h-69z" />
    <glyph glyph-name="afii10062" unicode="&#x40e;" horiz-adv-x="653" 
d="M92 695q35 0 57 -14.5t36 -43.5l168 -359h6l170 417h89l-241 -553q-32 -75 -70 -108.5t-94 -33.5h-67v84h95q18 9 36.5 32t35.5 68l8 21h-39l-217 444h-70v46h97zM244 831q12 -11 36 -15t46 -4q23 0 47 4.5t37 15.5v74h94v-41q0 -36 -15 -57t-40 -32.5t-57 -15t-66 -3.5
q-33 0 -65 3.5t-56.5 14.5t-40 32t-15.5 57v42h95v-75z" />
    <glyph glyph-name="afii10145" unicode="&#x40f;" horiz-adv-x="766" 
d="M110 0v649h-70v46h106q32 0 52 -16.5t20 -58.5v-561h330v636h108v-695h-230v-165h-85v165h-231z" />
    <glyph glyph-name="afii10017" unicode="&#x410;" horiz-adv-x="714" 
d="M610 0q-31 0 -45 10.5t-24 37.5l-48 134h-295l-66 -182h-92l249 649h-75v46h119q23 0 39.5 -2.5t29 -10t21.5 -21.5t17 -36l212 -566l22 -59h-64zM350 589h-4l-128 -348h256z" />
    <glyph glyph-name="afii10018" unicode="&#x411;" horiz-adv-x="654" 
d="M218 393h139q20 0 46.5 -1t55 -7t56.5 -17.5t50 -33t35.5 -53.5t13.5 -79q0 -46 -14.5 -79t-38 -55.5t-53 -35.5t-58 -20.5t-54 -9.5t-41.5 -2h-245v649h-70v46h469q46 0 46 -45v-115h-80v101h-257v-243zM217 334v-276h140q40 0 68 12.5t44.5 33t24 46t7.5 52.5
q0 24 -7.5 47.5t-24 42.5t-44.5 30.5t-68 11.5h-140z" />
    <glyph glyph-name="afii10019" unicode="&#x412;" horiz-adv-x="674" 
d="M40 695h323q110 0 167 -42.5t57 -129.5q0 -23 -8 -46.5t-23.5 -43.5t-37.5 -35.5t-49 -22.5v-7q40 -7 69.5 -22.5t48.5 -37.5t28 -48t9 -54q0 -44 -12.5 -76.5t-33 -55.5t-47 -37.5t-55 -22.5t-57 -11t-51.5 -3h-258v649h-70v46zM217 335v-277h136q23 0 50.5 6t51.5 22
t40 45t16 75q0 41 -16 66.5t-41 39.5t-54.5 18.5t-56.5 4.5h-126zM217 392h118q21 0 45.5 4.5t45.5 18t34.5 38t13.5 63.5q0 37 -15 60.5t-37 37t-47.5 18.5t-47.5 5h-110v-245z" />
    <glyph glyph-name="afii10020" unicode="&#x413;" horiz-adv-x="592" 
d="M218 636v-636h-108v649h-70v46h459q46 0 46 -45v-133h-80v119h-247z" />
    <glyph glyph-name="afii10021" unicode="&#x414;" horiz-adv-x="732" 
d="M597 59h100v-194h-85v135h-514v-135h-85v194h79q25 33 42 77t27.5 102.5t15 134t4.5 173.5v103h-70v46h417q32 0 50.5 -15t18.5 -57v-564zM261 536q0 -77 -3.5 -147.5t-12 -131.5t-22.5 -111.5t-35 -87.5h301v579h-228v-101z" />
    <glyph glyph-name="afii10022" unicode="&#x415;" horiz-adv-x="621" 
d="M218 59h271v100h80v-114q0 -45 -46 -45h-413v649h-70v46h459q46 0 46 -45v-110h-80v96h-247v-243h252v-59h-252v-275z" />
    <glyph glyph-name="afii10024" unicode="&#x416;" horiz-adv-x="984" 
d="M546 0h-108v330h-49l-204 -296q-17 -24 -35.5 -29t-45.5 -5h-79l189 261q30 41 56.5 67.5t64.5 43.5l-134 169q-18 23 -34 41.5t-39 32.5h-86v80h41q24 0 41 -3t33.5 -12.5t35 -29t44.5 -52.5l165 -210h36v307h108v-307h36l165 210q26 33 44.5 52.5t35 29t33.5 12.5t41 3
h41v-80h-86q-23 -14 -39 -32.5t-34 -41.5l-134 -169q38 -17 64.5 -43.5t56.5 -67.5l189 -261h-79q-27 0 -45.5 5t-35.5 29l-204 296h-49v-330z" />
    <glyph glyph-name="afii10025" unicode="&#x417;" horiz-adv-x="627" 
d="M135 76q33 -14 65.5 -22.5t80.5 -8.5q30 0 60.5 9t55.5 27t41 46t16 67q0 26 -7 51t-25.5 44.5t-50.5 31.5t-82 12h-116v59h125q43 0 70 12t41 30.5t19 40.5t5 42q0 40 -14 66t-37 41t-51.5 20.5t-56.5 5.5q-38 0 -65 -5.5t-60 -18.5v-108h-80v110q0 17 6.5 28.5
t23.5 19.5q44 18 93 26t99 8q125 0 189.5 -45.5t64.5 -130.5q0 -35 -10 -62t-27.5 -48t-41 -35t-49.5 -21v-6q70 -12 110 -51.5t40 -119.5q0 -44 -18.5 -81.5t-54.5 -65.5t-88.5 -43.5t-120.5 -15.5q-62 0 -110 10t-90 30q-13 6 -21.5 18t-8.5 35v114h80v-116z" />
    <glyph glyph-name="afii10026" unicode="&#x418;" horiz-adv-x="766" 
d="M656 0h-36q-32 0 -52 16.5t-20 58.5v482l-335 -557h-103v649h-70v46h106q32 0 52 -16.5t20 -58.5v-482l335 557h103v-695z" />
    <glyph glyph-name="afii10027" unicode="&#x419;" horiz-adv-x="766" 
d="M656 0h-36q-32 0 -52 16.5t-20 58.5v482l-335 -557h-103v649h-70v46h106q32 0 52 -16.5t20 -58.5v-482l335 557h103v-695zM300 831q12 -11 36 -15t46 -4q23 0 47 4.5t37 15.5v74h94v-41q0 -36 -15 -57t-40 -32.5t-57 -15t-66 -3.5q-33 0 -65 3.5t-56.5 14.5t-40 32
t-15.5 57v42h95v-75z" />
    <glyph glyph-name="afii10028" unicode="&#x41a;" horiz-adv-x="669" 
d="M218 0h-108v649h-70v46h106q32 0 52 -16.5t20 -58.5v-237h39l167 215q27 33 47 52t38 29t36.5 13t42.5 3h41v-80h-86q-23 -14 -44 -32.5t-39 -41.5l-136 -174q19 -9 34.5 -19t29 -23t27 -29t28.5 -36l201 -260h-79q-27 0 -45.5 5.5t-35.5 28.5l-214 291h-52v-325z" />
    <glyph glyph-name="afii10029" unicode="&#x41b;" horiz-adv-x="718" 
d="M608 0h-36q-32 0 -52 16.5t-20 58.5v561h-228v-100q0 -138 -9 -239t-33.5 -167t-67 -98t-109.5 -32h-33v84h63q19 4 38 22.5t35 63t26 121t10 197.5v161h-70v46h417q32 0 50.5 -15t18.5 -57v-623z" />
    <glyph glyph-name="afii10030" unicode="&#x41c;" horiz-adv-x="914" 
d="M110 0v649h-70v46h120q30 0 54.5 -13.5t39.5 -50.5l201 -503h5l223 567h121v-695h-36q-32 0 -51.5 16.5t-19.5 58.5v452h-10l-211 -527h-64l-212 521h-10v-521h-80z" />
    <glyph glyph-name="afii10031" unicode="&#x41d;" horiz-adv-x="766" 
d="M656 0h-36q-32 0 -52 16.5t-20 58.5v259h-330v-334h-108v649h-70v46h106q32 0 52 -16.5t20 -58.5v-227h330v302h108v-695z" />
    <glyph glyph-name="afii10032" unicode="&#x41e;" horiz-adv-x="736" 
d="M676 348q0 -26 -4 -63t-16 -77.5t-33.5 -80.5t-55.5 -71.5t-83.5 -51t-116.5 -19.5t-116 19.5t-83.5 51t-55.5 71.5t-32.5 80.5t-15.5 77.5t-4 63t4 63t15.5 77.5t32.5 80t55.5 71t83 51t116.5 19.5q67 0 116.5 -19.5t83.5 -51t55.5 -71t33.5 -80t16 -77.5t4 -63z
M563 348q0 20 -2.5 51t-9.5 65.5t-20.5 68.5t-35.5 61.5t-53.5 44.5t-74.5 17t-74 -17t-52.5 -44.5t-34.5 -61.5t-20.5 -68.5t-10 -65.5t-2.5 -51t2.5 -50.5t10 -65t20.5 -69t34.5 -62t52.5 -45t74 -17.5t74.5 17.5t53.5 45t35.5 62t20.5 69t9.5 65t2.5 50.5z" />
    <glyph glyph-name="afii10033" unicode="&#x41f;" horiz-adv-x="762" 
d="M652 0h-36q-32 0 -52 16.5t-20 58.5v561h-326v-636h-108v649h-70v46h541q32 0 51.5 -15t19.5 -57v-623z" />
    <glyph glyph-name="afii10034" unicode="&#x420;" horiz-adv-x="645" 
d="M110 0v649h-70v46h284q20 0 48 -1.5t58 -8.5t60 -21t54 -38t38.5 -60t14.5 -88q0 -46 -16.5 -85.5t-50 -69t-85 -46t-120.5 -16.5h-107v-261h-108zM217 637v-317h107q74 0 117 38t43 120q0 31 -8 60t-26.5 51t-49.5 35t-76 13h-107z" />
    <glyph glyph-name="afii10035" unicode="&#x421;" horiz-adv-x="615" 
d="M486 516v112q-12 5 -22.5 9t-22.5 7t-27 4.5t-37 1.5q-45 0 -82.5 -21t-64.5 -60t-42 -95.5t-15 -128.5q0 -79 15 -136t43.5 -93.5t68.5 -54t90 -17.5q42 0 80 9t78 31l22 -56q-41 -20 -87 -31.5t-114 -11.5q-81 0 -139.5 27t-96 75t-55.5 114t-18 145q0 92 24 160.5
t66 113.5t98.5 67.5t121.5 22.5q48 0 86 -6.5t80 -23.5q17 -8 23.5 -19.5t6.5 -28.5v-116h-80z" />
    <glyph glyph-name="afii10036" unicode="&#x422;" horiz-adv-x="671" 
d="M377 636v-636h-108v636h-159v-116h-80v130q0 45 46 45h494q46 0 46 -45v-130h-80v116h-159z" />
    <glyph glyph-name="afii10037" unicode="&#x423;" horiz-adv-x="653" 
d="M92 695q35 0 57 -14.5t36 -43.5l168 -359h6l170 417h89l-241 -553q-32 -75 -70 -108.5t-94 -33.5h-67v84h95q18 9 36.5 32t35.5 68l8 21h-39l-217 444h-70v46h97z" />
    <glyph glyph-name="afii10038" unicode="&#x424;" horiz-adv-x="901" 
d="M504 587q30 0 67 -3t75 -12t74 -26t64 -45t45 -68t17 -96t-21 -104t-63.5 -83t-106.5 -54.5t-151 -19.5v-91h-107v91q-87 0 -151 19.5t-106.5 54.5t-63.5 83t-21 104t17 96t45 68t64 45t74 26t75 12t67 3v77h-70v46h106q32 0 51.5 -16.5t19.5 -58.5v-48zM503 128
q44 0 85.5 10.5t73.5 35t51.5 64.5t19.5 99q0 44 -15 80.5t-44.5 62.5t-72.5 40.5t-98 14.5v-407zM398 535q-56 0 -98.5 -14.5t-72 -40.5t-44.5 -62.5t-15 -80.5q0 -59 19.5 -99t51.5 -64.5t73.5 -35t85.5 -10.5v407z" />
    <glyph glyph-name="afii10039" unicode="&#x425;" horiz-adv-x="644" 
d="M381 377l238 -377h-56q-22 0 -36.5 3.5t-25 9.5t-17.5 15t-14 20l-153 247h-4l-196 -295h-92l245 358l-175 291h-69v46h104q32 0 50 -13.5t35 -42.5l117 -203h6l165 259h88z" />
    <glyph glyph-name="afii10040" unicode="&#x426;" horiz-adv-x="768" 
d="M110 0v649h-70v46h106q32 0 52 -16.5t20 -58.5v-561h307v636h108v-636h100v-194h-85v135h-538z" />
    <glyph glyph-name="afii10041" unicode="&#x427;" horiz-adv-x="704" 
d="M486 0v299q-45 -20 -88.5 -29.5t-97.5 -9.5q-46 0 -83.5 10t-64.5 33.5t-42 62t-15 95.5v188h-70v46h101q32 0 52 -16.5t20 -58.5v-169q0 -67 32 -97.5t101 -30.5q33 0 76 7t79 32v333h108v-695h-108z" />
    <glyph glyph-name="afii10042" unicode="&#x428;" horiz-adv-x="1034" 
d="M110 0v649h-70v46h106q32 0 52 -16.5t20 -58.5v-561h245v636h108v-636h245v636h108v-695h-814z" />
    <glyph glyph-name="afii10043" unicode="&#x429;" horiz-adv-x="1059" 
d="M110 0v649h-70v46h106q32 0 52 -16.5t20 -58.5v-561h245v636h108v-636h245v636h108v-636h100v-194h-85v135h-829z" />
    <glyph glyph-name="afii10044" unicode="&#x42a;" horiz-adv-x="786" 
d="M30 650q0 45 46 45h285v-302h128q19 0 46 -1t55.5 -7t56.5 -17.5t50 -33t35.5 -53.5t13.5 -79q0 -46 -14.5 -79t-38 -55.5t-53 -35.5t-58 -20.5t-54 -9.5t-41.5 -2h-234v636h-143v-133h-80v147zM359 334v-276h130q40 0 68 12.5t44.5 33t24 46t7.5 52.5q0 24 -7.5 47.5
t-24 42.5t-44.5 30.5t-68 11.5h-130z" />
    <glyph glyph-name="afii10045" unicode="&#x42b;" horiz-adv-x="915" 
d="M218 393h117q20 0 46.5 -1t55 -7t56.5 -17.5t50 -33t35.5 -53.5t13.5 -79q0 -46 -14.5 -79t-38 -55.5t-53 -35.5t-58 -20.5t-54 -9.5t-41.5 -2h-223v649h-70v46h106q32 0 52 -16.5t20 -58.5v-227zM769 0q-32 0 -52 16.5t-20 58.5v620h108v-695h-36zM216 334v-276h119
q40 0 68 12.5t44.5 33t24 46t7.5 52.5q0 24 -7.5 47.5t-24 42.5t-44.5 30.5t-68 11.5h-119z" />
    <glyph glyph-name="afii10046" unicode="&#x42c;" horiz-adv-x="643" 
d="M218 393h128q20 0 46.5 -1t55 -7t56.5 -17.5t50 -33t35.5 -53.5t13.5 -79q0 -46 -14.5 -79t-38 -55.5t-53 -35.5t-58 -20.5t-54 -9.5t-41.5 -2h-234v649h-70v46h106q32 0 52 -16.5t20 -58.5v-227zM216 334v-276h130q40 0 68 12.5t44.5 33t24 46t7.5 52.5q0 24 -7.5 47.5
t-24 42.5t-44.5 30.5t-68 11.5h-130z" />
    <glyph glyph-name="afii10047" unicode="&#x42d;" horiz-adv-x="640" 
d="M135 72q29 -15 58.5 -21t61.5 -6q45 0 83.5 19.5t67 56.5t45 90.5t16.5 121.5h-293v59h292q-8 133 -60 195.5t-145 62.5q-32 0 -57 -3.5t-55 -15.5v-110h-80v112q0 17 6.5 28.5t23.5 19.5q44 17 84 23t94 6q81 0 138 -25.5t94 -72t54 -112t17 -146.5q0 -92 -24 -161.5
t-66.5 -115.5t-101 -69t-127.5 -23q-42 0 -88.5 8t-87.5 28q-13 7 -21.5 18.5t-8.5 34.5v114h80v-116z" />
    <glyph glyph-name="afii10048" unicode="&#x42e;" horiz-adv-x="1019" 
d="M959 348q0 -26 -4 -63t-16 -77.5t-33.5 -80.5t-55.5 -71.5t-83.5 -51t-116.5 -19.5q-64 0 -112 18t-81.5 47.5t-55.5 67t-34.5 76t-17.5 75.5t-6 65h-125v-334h-108v649h-70v46h106q32 0 52 -16.5t20 -58.5v-227h127q3 30 10 65t21.5 70t37 68t55 58.5t77.5 40.5t104 15
q67 0 116.5 -19.5t83.5 -51t55.5 -71t33.5 -80t16 -77.5t4 -63zM846 348q0 20 -2.5 51t-9.5 65.5t-20.5 68.5t-35.5 61.5t-53.5 44.5t-74.5 17t-74 -17t-52.5 -44.5t-34.5 -61.5t-20.5 -68.5t-10 -65.5t-2.5 -51t2.5 -50.5t10 -65t20.5 -69t34.5 -62t52.5 -45t74 -17.5
t74.5 17.5t53.5 45t35.5 62t20.5 69t9.5 65t2.5 50.5z" />
    <glyph glyph-name="afii10049" unicode="&#x42f;" horiz-adv-x="698" 
d="M588 0h-36q-32 0 -52 16.5t-20 58.5v222h-77l-188 -247q-22 -28 -45 -39t-65 -11h-67l116 148q26 34 47 58t39 41.5t35 29.5t37 22v6q-61 3 -101 20.5t-64 43.5t-33.5 58.5t-9.5 67.5q0 54 20.5 92t55 62t80.5 35t96 11h163q32 0 50.5 -15t18.5 -57v-623zM481 637h-98
q-22 0 -50.5 -5t-54.5 -20t-44 -43t-18 -74q0 -41 16.5 -67.5t40.5 -43t52 -23t52 -6.5h104v282z" />
    <glyph glyph-name="afii10065" unicode="&#x430;" horiz-adv-x="570" 
d="M90 345v79q0 33 33 48q48 18 89 23t73 5q57 0 94.5 -11t60 -32t31.5 -51.5t9 -69.5v-336h-40q-60 0 -63 59h-2q-46 -42 -88.5 -56.5t-77.5 -14.5q-39 0 -68.5 10.5t-49 29t-29 43.5t-9.5 54q0 32 11.5 61.5t40 52.5t76 37t119.5 14h76v39q0 65 -28.5 90t-80.5 25
q-31 0 -56 -5t-54 -18v-76h-67zM323 240q-50 0 -82 -8.5t-50.5 -23.5t-26 -34.5t-7.5 -41.5q0 -39 24 -59t62 -20q21 0 41.5 7t37.5 17.5t31.5 24t23.5 25.5v113h-54z" />
    <glyph glyph-name="afii10066" unicode="&#x431;" horiz-adv-x="577" 
d="M489 691q-2 -23 -12.5 -31.5t-33.5 -11.5q-21 -3 -50.5 -5.5t-73.5 -10.5q-98 -17 -144.5 -81.5t-46.5 -177.5h7q20 57 66 92t113 35q43 0 81 -15.5t66 -46.5t44.5 -78t16.5 -111q0 -67 -19 -116t-50.5 -81.5t-72.5 -48t-86 -15.5q-54 0 -97 17t-73.5 54t-47 94
t-16.5 138v23q0 79 11 144t36.5 114.5t66 83t99.5 50.5q22 6 44.5 10.5t48 8.5t56.5 8.5t70 11.5zM168 241q0 -44 7 -81t22 -64t39.5 -42.5t59.5 -15.5q37 0 60.5 20t37 50.5t18.5 66t5 66.5q0 18 -3.5 50.5t-16 64.5t-37 56t-66.5 24q-31 0 -54.5 -15.5t-39.5 -42.5
t-24 -62.5t-8 -74.5z" />
    <glyph glyph-name="afii10067" unicode="&#x432;" horiz-adv-x="543" 
d="M158 0q-32 0 -47.5 17t-15.5 46v383h-60v42h269q32 0 63.5 -6.5t56 -21.5t40 -38.5t15.5 -56.5q0 -37 -23 -67.5t-61 -42.5v-5q21 -4 39.5 -12.5t32.5 -22.5t22.5 -33t8.5 -43q0 -46 -20.5 -73.5t-51 -42t-66 -19t-64.5 -4.5h-138zM300 54q29 0 47.5 8t28.5 20.5
t13.5 27.5t3.5 29q0 43 -27.5 62t-69.5 19h-100v-166h104zM292 269q9 0 23.5 3t28 12t23 25t9.5 42q0 42 -27.5 62.5t-62.5 20.5h-90v-165h96z" />
    <glyph glyph-name="afii10068" unicode="&#x433;" horiz-adv-x="466" 
d="M198 433v-433h-103v446h-60v42h361q15 0 25 -10t10 -25v-113h-70v93h-163z" />
    <glyph glyph-name="afii10069" unicode="&#x434;" horiz-adv-x="580" 
d="M474 55h76v-164h-72v109h-393v-109h-72v164h60q32 34 54 109t22 203v79h-58v42h320q32 0 47.5 -18t15.5 -47v-368zM371 434h-150v-43q0 -50 -3 -99t-10.5 -93.5t-20 -81.5t-31.5 -63h215v380z" />
    <glyph glyph-name="afii10070" unicode="&#x435;" horiz-adv-x="528" 
d="M311 45q20 0 36.5 2t32 7t32 13.5t37.5 20.5l22 -50q-33 -20 -75.5 -35t-102.5 -15q-63 0 -108.5 18t-74 51.5t-42 81t-13.5 105.5q0 55 14.5 102t43 81.5t71 53.5t99.5 19q95 0 149 -58.5t54 -179.5v-31h-328q0 -95 37 -140.5t116 -45.5zM280 450q-47 0 -81 -44.5
t-39 -124.5h232q-2 45 -12 77.5t-25 52.5t-34.5 29.5t-40.5 9.5z" />
    <glyph glyph-name="afii10072" unicode="&#x436;" horiz-adv-x="791" 
d="M41 488h42q19 0 35 -2.5t31.5 -10.5t31.5 -22.5t34 -38.5l104 -133h26v207h101v-207h26l104 133q18 24 34 38.5t31.5 22.5t31.5 10.5t35 2.5h42v-70h-78q-8 -5 -17 -11t-18 -17l-103 -126q32 -11 59 -37.5t60 -68.5l123 -158h-71q-23 0 -44 7t-41 34l-135 186h-39v-227
h-101v227h-39l-135 -186q-20 -27 -41 -34t-44 -7h-71l123 158q33 42 60 68.5t59 37.5l-103 126q-9 11 -18 17t-17 11h-78v70z" />
    <glyph glyph-name="afii10073" unicode="&#x437;" horiz-adv-x="507" 
d="M59 347v77q0 20 7 31t25 19q37 14 75.5 20t88.5 6q46 0 81 -10t58.5 -27t35.5 -40t12 -49q0 -16 -5 -34.5t-16.5 -35t-29 -30t-41.5 -20.5v-5q52 -5 78.5 -35t26.5 -75q0 -30 -14.5 -57.5t-42.5 -48.5t-69.5 -33t-95.5 -12q-37 0 -75.5 7.5t-67.5 19.5q-14 6 -27 17
t-13 39v78h67v-79q26 -12 51.5 -18.5t57.5 -6.5q53 0 88 23t35 71q0 25 -9.5 41.5t-24.5 26t-32.5 13.5t-33.5 4h-83v55h83q14 0 30 4t30 13.5t23.5 25.5t9.5 40q0 38 -31.5 59.5t-82.5 21.5q-17 0 -30 -1t-24.5 -3.5t-23 -6t-24.5 -9.5v-76h-67z" />
    <glyph glyph-name="afii10074" unicode="&#x438;" horiz-adv-x="616" 
d="M95 446h-60v42h100q32 0 47.5 -18t15.5 -47v-302h4l224 367h98v-488h-40q-32 0 -47.5 18t-15.5 47v302h-4l-224 -367h-98v446z" />
    <glyph glyph-name="afii10075" unicode="&#x439;" horiz-adv-x="616" 
d="M95 446h-60v42h100q32 0 47.5 -18t15.5 -47v-302h4l224 367h98v-488h-40q-32 0 -47.5 18t-15.5 47v302h-4l-224 -367h-98v446zM235 633q14 -9 33 -12t39 -3t39 3t33 12v70h82v-43q0 -32 -14 -50.5t-36 -28t-49.5 -12t-54.5 -2.5t-54.5 2.5t-49.5 12t-36 28t-14 50.5v43
h82v-70z" />
    <glyph glyph-name="afii10076" unicode="&#x43a;" horiz-adv-x="544" 
d="M503 418h-79q-8 -5 -17.5 -11t-18.5 -17l-102 -123q32 -11 58.5 -39t59.5 -70l125 -158h-72q-23 0 -44.5 7t-41.5 34l-138 186h-37v-227h-103v446h-60v42h100q32 0 47.5 -18t15.5 -47v-142h25l105 133q19 24 35 38.5t31.5 22.5t31.5 10.5t36 2.5h43v-70z" />
    <glyph glyph-name="afii10077" unicode="&#x43b;" horiz-adv-x="582" 
d="M490 0h-40q-32 0 -47.5 18t-15.5 47v368h-150v-34q0 -77 -6 -149t-25.5 -127.5t-56 -89t-97.5 -33.5h-32v73h62q14 6 29 22.5t27 50.5t19.5 87.5t7.5 133.5v79h-58v42h320q32 0 47.5 -18t15.5 -47v-423z" />
    <glyph glyph-name="afii10078" unicode="&#x43c;" horiz-adv-x="727" 
d="M35 488h116q23 0 43.5 -10t33.5 -39l140 -334l156 383h111v-488h-40q-32 0 -47 18t-15 47v283h-6l-141 -348h-57l-153 358h-7v-358h-74v446h-60v42z" />
    <glyph glyph-name="afii10079" unicode="&#x43d;" horiz-adv-x="616" 
d="M95 446h-60v42h100q32 0 47.5 -18t15.5 -47v-144h223v209h103v-488h-40q-32 0 -47.5 18t-15.5 47v159h-223v-224h-103v446z" />
    <glyph glyph-name="afii10080" unicode="&#x43e;" horiz-adv-x="570" 
d="M285 -12q-52 0 -94.5 16.5t-72.5 49t-46.5 80t-16.5 110.5q0 64 17 112t48 80t73 48t92 16t92 -16t73 -48t48 -80t17 -112q0 -63 -16.5 -110.5t-46.5 -80t-72.5 -49t-94.5 -16.5zM285 38q27 0 50 11t39.5 36t26 64t9.5 95q0 55 -9.5 94t-26.5 64t-40 36.5t-49 11.5
t-48.5 -11.5t-39.5 -36.5t-27 -64t-10 -94q0 -56 9.5 -95t26 -64t39.5 -36t50 -11z" />
    <glyph glyph-name="afii10081" unicode="&#x43f;" horiz-adv-x="610" 
d="M518 0h-40q-32 0 -47.5 18t-15.5 47v368h-217v-433h-103v446h-60v42h420q32 0 47.5 -18t15.5 -47v-423z" />
    <glyph glyph-name="afii10082" unicode="&#x440;" horiz-adv-x="581" 
d="M33 488h93q23 0 36 -11t16 -29q26 21 62.5 36.5t76.5 15.5q100 0 154.5 -59.5t54.5 -186.5t-57 -196.5t-158 -69.5q-11 0 -26 2t-31 6t-31 10.5t-27 15.5v-242h-103v666h-60v42zM303 442q-33 0 -60.5 -15.5t-47.5 -34.5v-310q12 -11 26.5 -18.5t29 -12t28 -6.5t22.5 -2
q24 0 46 10t38.5 34t26 64.5t9.5 102.5q0 101 -32.5 144.5t-85.5 43.5z" />
    <glyph glyph-name="afii10083" unicode="&#x441;" horiz-adv-x="499" 
d="M389 333v89q-26 13 -44.5 17t-40.5 4q-29 0 -55.5 -10.5t-46 -34.5t-31 -63t-11.5 -96q0 -54 11.5 -91.5t32 -60t48 -32.5t59.5 -10q30 0 59 9.5t67 33.5l22 -50q-42 -27 -85 -38.5t-80 -11.5q-52 0 -96 13t-75.5 43t-49.5 79t-18 121q0 68 19.5 116.5t52.5 79.5t77 45.5
t94 14.5q69 0 129 -27q17 -9 23 -19.5t6 -31.5v-89h-67z" />
    <glyph glyph-name="afii10084" unicode="&#x442;" horiz-adv-x="551" 
d="M317 433v-433h-103v433h-124v-93h-70v113q0 15 10 25t25 10h421q15 0 25 -10t10 -25v-113h-70v93h-124z" />
    <glyph glyph-name="afii10085" unicode="&#x443;" horiz-adv-x="553" 
d="M518 488l-207 -560q-13 -36 -26.5 -63.5t-30 -46.5t-38 -28.5t-51.5 -9.5h-58v73h86q12 7 23 22.5t26 54.5l27 70h-31l-178 446h-60v42h97q26 0 47 -14.5t37 -58.5l117 -322h5l135 395h80z" />
    <glyph glyph-name="afii10086" unicode="&#x444;" horiz-adv-x="797" 
d="M386 745q32 0 47.5 -18t15.5 -47v-210q55 30 103 30q36 0 70 -11t61 -39t43 -76.5t16 -122.5q0 -68 -14.5 -117.5t-39 -81.5t-58 -48t-72.5 -16q-33 0 -61.5 9t-47.5 22v-239h-101v239q-19 -13 -47.5 -22t-61.5 -9q-39 0 -72.5 16t-58 48t-39 81.5t-14.5 117.5
q0 74 16 122.5t43 76.5t61 39t70 11q47 0 103 -30v233h-60v42h98zM526 442q-20 0 -39.5 -8t-37.5 -21v-338q18 -12 40 -21t49 -9q48 0 74 54.5t26 151.5q0 94 -25.5 142.5t-86.5 48.5zM271 442q-61 0 -86.5 -48.5t-25.5 -142.5q0 -97 26 -151.5t74 -54.5q27 0 49 9t40 21
v338q-18 13 -37.5 21t-39.5 8z" />
    <glyph glyph-name="afii10087" unicode="&#x445;" horiz-adv-x="526" 
d="M501 0h-51q-42 0 -60.5 10.5t-33.5 32.5l-101 150h-3l-137 -193h-87l187 249l-135 197h-55v42h91q29 0 47 -14t37 -43l75 -114h3l121 171h80l-167 -225z" />
    <glyph glyph-name="afii10088" unicode="&#x446;" horiz-adv-x="608" 
d="M158 0q-32 0 -47.5 17t-15.5 46v383h-60v42h100q32 0 47.5 -18t15.5 -47v-368h201v433h103v-433h76v-164h-72v109h-348z" />
    <glyph glyph-name="afii10089" unicode="&#x447;" horiz-adv-x="574" 
d="M379 201q-34 -20 -73 -29.5t-74 -9.5q-75 0 -114 34.5t-39 101.5v148h-60v42h95q32 0 47.5 -18t15.5 -47v-105q0 -48 20 -69.5t66 -21.5q15 0 31 2t32 6t29.5 9.5t23.5 12.5v231h103v-488h-103v201z" />
    <glyph glyph-name="afii10090" unicode="&#x448;" horiz-adv-x="841" 
d="M158 0q-32 0 -47.5 17t-15.5 46v383h-60v42h99q32 0 47.5 -18t15.5 -47v-368h173v433h102v-433h175v433h102v-488h-591z" />
    <glyph glyph-name="afii10091" unicode="&#x449;" horiz-adv-x="855" 
d="M158 0q-32 0 -47.5 17t-15.5 46v383h-60v42h99q32 0 47.5 -18t15.5 -47v-368h173v433h102v-433h175v433h102v-433h76v-164h-72v109h-595z" />
    <glyph glyph-name="afii10092" unicode="&#x44a;" horiz-adv-x="621" 
d="M266 0q-32 0 -47.5 17t-15.5 46v370h-116v-97h-67v117q0 15 10 25t25 10h251v-198h107q95 0 135.5 -37.5t40.5 -105.5q0 -36 -14 -63.5t-37.5 -46t-55 -28t-67.5 -9.5h-149zM387 54q45 0 71.5 20.5t26.5 73.5q0 24 -8 41.5t-21.5 28t-31.5 15.5t-37 5h-82v-184h82z" />
    <glyph glyph-name="afii10093" unicode="&#x44b;" horiz-adv-x="733" 
d="M158 0q-32 0 -47.5 17t-15.5 46v383h-60v42h100q32 0 47.5 -18t15.5 -47v-133h98q95 0 135.5 -37.5t40.5 -105.5q0 -36 -14 -63.5t-37.5 -46t-55 -28t-67.5 -9.5h-140zM538 488h103v-488h-40q-32 0 -47.5 18t-15.5 47v423zM270 54q45 0 71.5 20.5t26.5 73.5q0 24 -8 41.5
t-21.5 28t-31.5 15.5t-37 5h-73v-184h73z" />
    <glyph glyph-name="afii10094" unicode="&#x44c;" horiz-adv-x="513" 
d="M158 0q-32 0 -47.5 17t-15.5 46v383h-60v42h100q32 0 47.5 -18t15.5 -47v-133h107q95 0 135.5 -37.5t40.5 -105.5q0 -36 -14 -63.5t-37.5 -46t-55 -28t-67.5 -9.5h-149zM279 54q45 0 71.5 20.5t26.5 73.5q0 24 -8 41.5t-21.5 28t-31.5 15.5t-37 5h-82v-184h82z" />
    <glyph glyph-name="afii10095" unicode="&#x44d;" horiz-adv-x="523" 
d="M117 69q25 -13 47.5 -18.5t54.5 -5.5q28 0 53 10.5t44.5 32t31.5 55.5t14 81h-197v55h197q-4 45 -16.5 76t-31.5 50.5t-43 28.5t-51 9q-29 0 -48.5 -3.5t-45.5 -15.5v-76h-67v77q0 20 7 31t25 19q33 12 67.5 18.5t69.5 6.5q49 0 93 -13t76.5 -42t51.5 -76t19 -116
q0 -68 -17.5 -118t-50 -82.5t-78 -48.5t-102.5 -16q-13 0 -29.5 2t-34.5 5t-35.5 8t-30.5 11q-14 6 -27 17t-13 39v78h67v-79z" />
    <glyph glyph-name="afii10096" unicode="&#x44e;" horiz-adv-x="799" 
d="M514 -12q-99 0 -161.5 60.5t-68.5 175.5h-86v-224h-103v446h-60v42h100q32 0 47.5 -18t15.5 -47v-144h87q5 55 24 96.5t49 69t69.5 41.5t86.5 14q50 0 92 -16t73 -48t48 -80t17 -112q0 -63 -16.5 -110.5t-46.5 -80t-72.5 -49t-94.5 -16.5zM514 38q55 0 90 48t35 158
q0 54 -9.5 93t-26.5 64t-40 37t-49 12t-48.5 -12t-39.5 -37t-27 -64t-10 -93q0 -110 35 -158t90 -48z" />
    <glyph glyph-name="afii10097" unicode="&#x44f;" horiz-adv-x="558" 
d="M466 0h-40q-32 0 -47.5 18t-15.5 47v138h-53l-114 -158q-16 -22 -36 -33.5t-58 -11.5h-69l98 123q16 20 28.5 34t23.5 23t21 15t21 11v6q-45 4 -73.5 18t-45 33t-23 41.5t-6.5 44.5q0 67 47.5 103t144.5 36h134q32 0 47.5 -18t15.5 -47v-423zM289 434q-48 0 -78 -20
t-30 -70q0 -20 9 -36.5t25 -29t38 -19.5t47 -7h64v182h-75z" />
    <glyph glyph-name="afii10071" unicode="&#x451;" horiz-adv-x="528" 
d="M311 45q20 0 36.5 2t32 7t32 13.5t37.5 20.5l22 -50q-33 -20 -75.5 -35t-102.5 -15q-63 0 -108.5 18t-74 51.5t-42 81t-13.5 105.5q0 55 14.5 102t43 81.5t71 53.5t99.5 19q95 0 149 -58.5t54 -179.5v-31h-328q0 -95 37 -140.5t116 -45.5zM280 450q-47 0 -81 -44.5
t-39 -124.5h232q-2 45 -12 77.5t-25 52.5t-34.5 29.5t-40.5 9.5zM115 644q0 26 18.5 45t44.5 19t45 -19t19 -45t-19 -44.5t-45 -18.5t-44.5 18.5t-18.5 44.5zM309 644q0 26 18.5 45t44.5 19t45 -19t19 -45t-19 -44.5t-45 -18.5t-44.5 18.5t-18.5 44.5z" />
    <glyph glyph-name="afii10099" unicode="&#x452;" horiz-adv-x="600" 
d="M331 -181q20 0 36.5 15t28.5 56.5t19 116t7 193.5q0 77 -8.5 122.5t-23.5 69.5t-35.5 31t-43.5 7q-15 0 -31 -4t-31.5 -11t-29 -15.5t-23.5 -17.5v-382h-103v560h-60v55h60v88h-60v42h100q32 0 47.5 -18t15.5 -47v-65h209v-55h-209v-109q31 17 68.5 27t77.5 10
q48 0 82.5 -14t57 -47.5t33 -89t10.5 -137.5q0 -122 -14 -204t-39 -132.5t-58.5 -72t-73.5 -21.5q-14 0 -28.5 2t-27.5 4l5 49q21 -6 42 -6z" />
    <glyph glyph-name="afii10100" unicode="&#x453;" horiz-adv-x="466" 
d="M198 433v-433h-103v446h-60v42h361q15 0 25 -10t10 -25v-113h-70v93h-163zM179 565l72 164h112l-118 -164h-66z" />
    <glyph glyph-name="afii10101" unicode="&#x454;" horiz-adv-x="499" 
d="M389 333v89q-26 13 -44.5 17t-40.5 4q-28 0 -53 -9.5t-44.5 -30.5t-31.5 -55t-15 -83h217v-55h-216q3 -46 15.5 -77.5t32.5 -51t46 -28t56 -8.5t59 9.5t67 33.5l22 -50q-42 -27 -85 -38.5t-80 -11.5q-52 0 -96 13t-75.5 43t-49.5 79t-18 121q0 68 19.5 116.5t52.5 79.5
t77 45.5t94 14.5q69 0 129 -27q17 -9 23 -19.5t6 -31.5v-89h-67z" />
    <glyph glyph-name="afii10102" unicode="&#x455;" horiz-adv-x="503" 
d="M359 343v79q-25 11 -46 16t-57 5q-18 0 -35.5 -4t-31 -13t-22 -22.5t-8.5 -32.5q0 -17 10 -30t26.5 -23.5t38.5 -19t47 -17.5q32 -11 63 -23.5t55 -29.5t39 -41t15 -58q0 -63 -57.5 -102t-159.5 -39q-39 0 -80.5 8t-74.5 23q-8 4 -19.5 13.5t-11.5 33.5v87h67v-82
q27 -14 54.5 -20t60.5 -6q19 0 39.5 3.5t37.5 12.5t28 24.5t11 39.5q0 19 -9.5 32.5t-26 24t-40 19.5t-50.5 19q-35 12 -65 25t-52.5 30t-35.5 40t-13 56q0 42 21.5 67.5t52 39t63 18t53.5 4.5q42 0 78.5 -6.5t72.5 -20.5q17 -9 23 -19.5t6 -31.5v-79h-67z" />
    <glyph glyph-name="afii10103" unicode="&#x456;" horiz-adv-x="290" 
d="M158 0q-32 0 -47.5 18t-15.5 47v381h-60v42h100q32 0 47.5 -18t15.5 -47v-423h-40zM76 644q0 26 18.5 45t44.5 19t45 -19t19 -45t-19 -44.5t-45 -18.5t-44.5 18.5t-18.5 44.5z" />
    <glyph glyph-name="afii10104" unicode="&#x457;" horiz-adv-x="289" 
d="M158 0q-32 0 -47.5 18t-15.5 47v381h-60v42h100q32 0 47.5 -18t15.5 -47v-423h-40zM-25 644q0 26 18.5 45t44.5 19t45 -19t19 -45t-19 -44.5t-45 -18.5t-44.5 18.5t-18.5 44.5zM147 644q0 26 18.5 45t44.5 19t45 -19t19 -45t-19 -44.5t-45 -18.5t-44.5 18.5t-18.5 44.5z
" />
    <glyph glyph-name="afii10105" unicode="&#x458;" horiz-adv-x="290" 
d="M135 488q32 0 47.5 -18t15.5 -47v-445q0 -104 -47.5 -156t-127.5 -52q-14 0 -28.5 2t-27.5 4l5 49q21 -6 42 -6q81 0 81 136v491h-60v42h100zM76 644q0 26 18.5 45t44.5 19t45 -19t19 -45t-19 -44.5t-45 -18.5t-44.5 18.5t-18.5 44.5z" />
    <glyph glyph-name="afii10106" unicode="&#x459;" horiz-adv-x="792" 
d="M442 0q-32 0 -47.5 17t-15.5 46v370h-142v-34q0 -77 -6 -149t-25.5 -127.5t-56 -89t-97.5 -33.5h-32v73h62q14 6 29 22.5t27 50.5t19.5 87.5t7.5 133.5v79h-58v42h312q32 0 47.5 -18t15.5 -47v-144h102q95 0 135.5 -35t40.5 -103q0 -36 -14 -62.5t-37.5 -44t-55 -26
t-67.5 -8.5h-144zM481 54h77q22 0 40 4t31 14t20 27t7 43q0 24 -8 40.5t-21.5 26.5t-31.5 14t-37 4h-77v-173z" />
    <glyph glyph-name="afii10107" unicode="&#x45a;" horiz-adv-x="824" 
d="M479 0q-32 0 -47.5 17t-15.5 46v161h-218v-224h-103v446h-60v42h100q32 0 47.5 -18t15.5 -47v-144h218v209h103v-209h97q95 0 135.5 -35t40.5 -103q0 -36 -14 -62.5t-37.5 -44t-55 -26t-67.5 -8.5h-139zM518 54h72q22 0 40 4t31 14t20 27t7 43q0 24 -8 40.5t-21.5 26.5
t-31.5 14t-37 4h-72v-173z" />
    <glyph glyph-name="afii10108" unicode="&#x45b;" horiz-adv-x="605" 
d="M33 615h60v88h-60v42h100q32 0 47.5 -18t15.5 -47v-65h209v-55h-209v-109q31 17 70.5 27t92.5 10q84 0 120 -37.5t36 -103.5v-347h-40q-32 0 -47.5 18t-15.5 47v269q0 30 -7 49t-19 29.5t-29 14t-37 3.5q-36 0 -70 -15t-54 -33v-382h-103v560h-60v55z" />
    <glyph glyph-name="afii10109" unicode="&#x45c;" horiz-adv-x="544" 
d="M503 418h-79q-8 -5 -17.5 -11t-18.5 -17l-102 -123q32 -11 58.5 -39t59.5 -70l125 -158h-72q-23 0 -44.5 7t-41.5 34l-138 186h-37v-227h-103v446h-60v42h100q32 0 47.5 -18t15.5 -47v-142h25l105 133q19 24 35 38.5t31.5 22.5t31.5 10.5t36 2.5h43v-70zM225 565l72 164
h112l-118 -164h-66z" />
    <glyph glyph-name="afii10110" unicode="&#x45e;" horiz-adv-x="553" 
d="M518 488l-207 -560q-13 -36 -26.5 -63.5t-30 -46.5t-38 -28.5t-51.5 -9.5h-58v73h86q12 7 23 22.5t26 54.5l27 70h-31l-178 446h-60v42h97q26 0 47 -14.5t37 -58.5l117 -322h5l135 395h80zM206 633q14 -9 33 -12t39 -3t39 3t33 12v70h82v-43q0 -32 -14 -50.5t-36 -28
t-49.5 -12t-54.5 -2.5t-54.5 2.5t-49.5 12t-36 28t-14 50.5v43h82v-70z" />
    <glyph glyph-name="afii10193" unicode="&#x45f;" horiz-adv-x="615" 
d="M198 55h222v433h103v-488h-178v-129h-72v129h-115q-32 0 -47.5 17t-15.5 46v383h-60v42h100q32 0 47.5 -18t15.5 -47v-368z" />
    <glyph glyph-name="afii10050" unicode="&#x490;" horiz-adv-x="592" 
d="M40 695h422v135h80v-144q0 -50 -50 -50h-274v-636h-108v649h-70v46z" />
    <glyph glyph-name="afii10098" unicode="&#x491;" horiz-adv-x="466" 
d="M35 488h324v109h72v-124q0 -19 -9 -29.5t-31 -10.5h-193v-433h-103v446h-60v42z" />
    <glyph glyph-name="uniF6C9" horiz-adv-x="769" 
d="M300 769l73 168h116l-120 -168h-69z" />
    <glyph glyph-name="uniF6CB" horiz-adv-x="604" 
d="M135 842q0 29 19 48.5t45 19.5q27 0 46.5 -19.5t19.5 -48.5q0 -25 -19.5 -43.5t-46.5 -18.5q-26 0 -45 18.5t-19 43.5zM340 842q0 29 19 48.5t46 19.5q25 0 44.5 -19.5t19.5 -48.5q0 -25 -19.5 -43.5t-44.5 -18.5q-27 0 -46 18.5t-19 43.5z" />
    <glyph glyph-name="uniF6D1" horiz-adv-x="769" 
d="M302 831q12 -11 36 -15t46 -4q23 0 47 4.5t37 15.5v74h94v-41q0 -36 -15 -57t-40 -32.5t-57 -15t-66 -3.5q-33 0 -65 3.5t-56.5 14.5t-40 32t-15.5 57v42h95v-75z" />
    <glyph glyph-name="uniF6D4" horiz-adv-x="614" 
d="M235 633q14 -9 33 -12t39 -3t39 3t33 12v70h82v-43q0 -32 -14 -50.5t-36 -28t-49.5 -12t-54.5 -2.5t-54.5 2.5t-49.5 12t-36 28t-14 50.5v43h82v-70z" />
    </font>
</defs>
</svg>
